<svg width="29" height="16" viewBox="0 0 29 16" fill="none" xmlns="http://www.w3.org/2000/svg">
<g style="mix-blend-mode:screen">
<path d="M28.0226 4.69832C26.9173 3.26374 25.028 2.58172 23.2485 3.06776C21.5474 3.53811 19.8698 5.31762 19.9012 7.18336C19.8384 7.39502 19.7992 7.61452 19.7914 7.84185C19.7444 8.21814 19.7365 8.48467 19.7522 8.84528C19.7836 9.55081 19.8698 10.0682 19.9325 10.664C20.0579 11.9104 20.4107 13.0706 20.834 14.2465C20.9281 14.4974 21.2887 14.5836 21.4298 14.3249C21.861 13.5488 22.4646 12.8276 23.2564 12.3886C23.7267 12.1299 24.299 12.0515 24.8477 11.9026C28.1402 11.5106 30.3665 7.70859 28.0383 4.69048L28.0226 4.69832Z" fill="#1E9ED1"/>
<path d="M7.46821 1.23304C4.73232 0.0414807 1.62798 0.613745 0.358024 3.63185C-0.676756 6.07769 0.569683 9.9738 3.60347 10.3971C6.97434 10.8675 9.4437 12.8665 12.2893 15.0771C13.0106 15.6337 14.304 15.5867 14.5235 14.4892C15.5975 9.0958 12.4932 3.42019 7.46821 1.23304Z" fill="#1E9ED1"/>
</g>
</svg>
