<svg width="29" height="15" viewBox="0 0 29 15" fill="none" xmlns="http://www.w3.org/2000/svg">
<g style="mix-blend-mode:screen">
<path d="M0.97727 4.045C2.0826 2.61042 3.97186 1.9284 5.75137 2.41444C7.45248 2.88479 9.13008 4.6643 9.09872 6.53004C9.16143 6.7417 9.20063 6.9612 9.20847 7.18853C9.25551 7.56482 9.26335 7.83135 9.24767 8.19196C9.21631 8.89749 9.13008 9.41488 9.06736 10.0107C8.94194 11.2571 8.58917 12.4173 8.16585 13.5932C8.07178 13.844 7.71117 13.9303 7.57007 13.6716C7.13891 12.8955 6.53529 12.1743 5.74353 11.7353C5.27317 11.4766 4.70091 11.3982 4.15216 11.2493C0.85968 10.8573 -1.36666 7.05527 0.961591 4.03716L0.97727 4.045Z" fill="#1E9ED1"/>
<path d="M21.5318 0.579725C24.2677 -0.61184 27.372 -0.0395756 28.642 2.97853C29.6768 5.42437 28.4303 9.32048 25.3965 9.74379C22.0257 10.2141 19.5563 12.2132 16.7107 14.4238C15.9894 14.9804 14.696 14.9334 14.4765 13.8359C13.4025 8.44248 16.5068 2.76687 21.5318 0.579725Z" fill="#1E9ED1"/>
</g>
</svg>
