<svg fill="none" height="168" viewBox="0 0 112 168" width="112" xmlns="http://www.w3.org/2000/svg" xmlns:xlink="http://www.w3.org/1999/xlink"><filter id="a" color-interpolation-filters="sRGB" filterUnits="userSpaceOnUse" height="168" width="112" x="0" y="0"><feFlood flood-opacity="0" result="BackgroundImageFix"/><feColorMatrix in="SourceAlpha" result="hardAlpha" type="matrix" values="0 0 0 0 0 0 0 0 0 0 0 0 0 0 0 0 0 0 127 0"/><feOffset dy="2"/><feComposite in2="hardAlpha" operator="out"/><feColorMatrix type="matrix" values="0 0 0 0 0.301961 0 0 0 0 0.65098 0 0 0 0 0.960784 0 0 0 1 0"/><feBlend in2="BackgroundImageFix" mode="normal" result="effect1_dropShadow_263_1181"/><feBlend in="SourceGraphic" in2="effect1_dropShadow_263_1181" mode="normal" result="shape"/></filter><linearGradient id="b" gradientUnits="userSpaceOnUse" x1="56" x2="56" y1="0" y2="166"><stop offset="0" stop-color="#f5faff"/><stop offset="1" stop-color="#d9e9f8"/></linearGradient><g filter="url(#a)"><path d="m112 109.548c0 31.176-25.0868 56.452-56.0042 56.452-30.9243 0-55.9958-25.276-55.9958-56.452 0-31.1857 37.1683-62.0408 55.9958-109.548 20.3076 45.2484 56.0042 78.3623 56.0042 109.548z" fill="url(#b)"/></g><path d="m49.5578 108.808c-.2987 0-.576-.107-.832-.32-.256-.256-.384-.533-.384-.832 0-.085 0-.171 0-.256s.0213-.171.064-.256c.384-1.195.96-2.304 1.728-3.328.768-1.067 1.6213-2.048 2.56-2.944.9386-.9387 1.8346-1.792 2.688-2.56.8533-.8107 1.5573-1.5573 2.112-2.24.5546-.7253.832-1.3867.832-1.984 0-.4267-.1067-.7893-.32-1.088-.1707-.2987-.4267-.5333-.768-.704-.2987-.1707-.6614-.256-1.088-.256-1.28 0-2.1547.256-2.624.768-.4267.512-.7894 1.0453-1.088 1.6-.2134.4267-.4694.8107-.768 1.152-.2987.2987-.8107.448-1.536.448h-11.904c-.4267 0-.8107-.1707-1.152-.512-.2987-.384-.448-.8747-.448-1.472.0426-1.6213.4693-3.264 1.28-4.928.8533-1.7067 2.112-3.2853 3.776-4.736 1.7066-1.4507 3.84-2.6027 6.4-3.456 2.6026-.896 5.6746-1.344 9.216-1.344 3.712 0 6.7413.4267 9.088 1.28 2.3466.8107 4.16 1.8773 5.44 3.2 1.28 1.28 2.176 2.6027 2.688 3.968.512 1.3227.768 2.496.768 3.52 0 1.3653-.2134 2.624-.64 3.776-.384 1.152-.9174 2.2187-1.6 3.2-.6827.9387-1.4294 1.856-2.24 2.752-.8107.853-1.6214 1.685-2.432 2.496-.768.768-1.472 1.536-2.112 2.304-.128.171-.256.32-.384.448s-.2347.277-.32.448c-.4267.64-.7894 1.109-1.088 1.408-.256.299-.6614.448-1.216.448zm.64 16.192c-.4694 0-.8747-.171-1.216-.512-.3414-.341-.512-.747-.512-1.216v-10.176c0-.469.1706-.875.512-1.216.3413-.341.7466-.512 1.216-.512h11.712c.4693 0 .8746.171 1.216.512.3413.341.512.747.512 1.216v10.176c0 .469-.1707.875-.512 1.216-.3414.341-.7467.512-1.216.512z" fill="#3aa3f4"/></svg>