<svg fill="none" height="33" viewBox="0 0 32 33" width="32" xmlns="http://www.w3.org/2000/svg"><path d="m12.8508 20.1481.2402.2638-.0236.0993-.3789-.0252-.4079 6.1493-.0353.5331h.5342c.386 0 .6911-.0921.9546-.2508.2231-.1343.4054-.3127.5526-.4567.0129-.0127.0256-.0251.038-.0372l.0014-.0013 2.5664-2.5179 5.6307 4.1962.0268.02.0292.0162c.6082.3379 1.2617.4947 1.8432.2306.583-.2647.9053-.8667 1.0558-1.5948.0001-.0001.0001-.0003.0002-.0005l3.9195-18.63695c.2224-.90855.0793-1.70436-.4265-2.19768-.5122-.49951-1.2559-.55183-1.9201-.25403l-23.01855 8.95556h-.00002l-.00648.0026c-.4258.1726-.77557.3738-1.03242.6029-.25388.2265-.45446.5156-.48879.8598-.03614.3625.12239.6738.36189.9023.23071.2201.54884.3799.90981.4918.00035.0001.00071.0002.00106.0003l5.91073 1.8603.22215.07.19642-.1251 12.199-7.7655z" fill="#fff" stroke="#000"/></svg>