<svg fill="none" height="33" viewBox="0 0 32 33" width="32" xmlns="http://www.w3.org/2000/svg" xmlns:xlink="http://www.w3.org/1999/xlink"><clipPath id="a"><path d="m2 3h28v28h-28z"/></clipPath><g clip-path="url(#a)"><path d="m28.2033 9.99984c-.8983.40836-1.8667.67666-2.87.80496 1.0267-.6183 1.82-1.5983 2.1933-2.77663-.9683.58333-2.0416.99167-3.1733 1.225-.9217-1.00333-2.2167-1.58667-3.6867-1.58667-2.7416 0-4.9816 2.24-4.9816 5.005 0 .3967.0466.7817.1283 1.1433-4.1533-.21-7.85167-2.205-10.31334-5.22663-.43166.735-.67666 1.59833-.67666 2.50833 0 1.7383.875 3.2783 2.22833 4.1533-.82833 0-1.59833-.2333-2.275-.5833v.035c0 2.4267 1.72667 4.4567 4.01333 4.9117-.73402.2017-1.50495.2297-2.25166.0816.31687.9946.93746 1.8648 1.77452 2.4885.83706.6236 1.84848.9692 2.89218.9882-1.76909 1.4006-3.96202 2.1576-6.21837 2.1467-.39667 0-.79333-.0234-1.19-.07 2.21667 1.4233 4.85333 2.2516 7.67667 2.2516 9.1933 0 14.245-7.63 14.245-14.245 0-.2216 0-.4316-.0117-.6533.98-.7 1.82-1.5867 2.4967-2.60166z" fill="#fff"/><path clip-rule="evenodd" d="m30.9784 7.64028-1.943 2.91452c-.6395.9593-1.4166 1.8197-2.3172 2.5362.0001.0523.0001.1036.0001.1539v.0102c0 7.0458-5.3852 15.245-15.245 15.245-3.02151 0-5.84475-.887-8.21695-2.4102l.65715-1.8346c.35815.0422.71581.0632 1.07316.0632h.00486c1.26741.0061 2.51258-.2571 3.65652-.7625-.32598-.1606-.63828-.3512-.93263-.5705-1.00469-.7485-1.74956-1.793-2.12989-2.9868l-.48989-1.5376c-.82528-1.0301-1.31897-2.3381-1.31897-3.7593v-1.6781l.44179.2285c-.25603-.6703-.39513-1.3981-.39513-2.1554 0-1.0899.29347-2.12778.81439-3.01474l.72872-1.24079.90885 1.1156c2.05363 2.52083 5.03182 4.27223 8.40982 4.74723-.0001-.0108-.0001-.0215-.0001-.0323 0-3.31423 2.6847-6.00499 5.9817-6.00499 1.5316 0 2.9232.53701 3.994 1.48807.8385-.2202 1.6293-.54884 2.3499-.98298l2.2696-1.36721-.8002 2.52583c-.0579.18267-.1242.36133-.1983.53556zm-15.2916 5.16602c-.0012-.0447-.0018-.0895-.0018-.1345 0-2.76499 2.24-5.00499 4.9817-5.00499 1.47 0 2.765.58334 3.6866 1.58667.596-.12289 1.1758-.29431 1.7327-.51428.5004-.1977.9823-.4346 1.4407-.71072-.1661.52398-.4151 1.00875-.7308 1.43993-.0214.0292-.0431.05815-.0651.08685-.3834.50064-.8583.92514-1.3975 1.24984.3847-.0492.7642-.1189 1.1366-.2093.3151-.0764.6251-.1676.9288-.2735.2736-.0954.5421-.2028.8046-.3222-.3574.5362-.7604 1.0365-1.2055 1.4924-.3976.4073-.8288.7791-1.2911 1.1093.0116.2217.0116.4317.0116.6533 0 6.615-5.0516 14.245-14.245 14.245-2.0358 0-3.97456-.4306-5.72878-1.2045-.25666-.1133-.50938-.2338-.75786-.3615-.001-.0005-.00199-.001-.00299-.0015-.40743-.2094-.80351-.4379-1.18701-.6841.39666.0466.79333.07 1.19.07.31369.0015.62615-.0118.93643-.0396 1.41855-.1273 2.79123-.5578 4.02548-1.2597.43753-.2488.85773-.5318 1.25643-.8474-.4799-.0087-.953-.0865-1.40542-.2287-.53152-.1669-1.03457-.4227-1.48674-.7595-.51832-.3862-.95363-.8669-1.28523-1.4131-.18865-.3108-.34373-.6427-.46143-.9906-.00953-.0281-.01882-.0564-.02786-.0848.36395.0722.73365.1026 1.10203.0913.38742-.0117.77338-.0695 1.14964-.1729-.73442-.1462-1.41107-.4548-1.99131-.8868-.93944-.6995-1.62613-1.7225-1.89603-2.9034-.08243-.3607-.12599-.7361-.12599-1.1215v-.035c.02281.0118.04573.0235.06876.035.08955.0449.18068.0876.27332.1281.21701.0947.44228.1766.6748.2423.39968.1129.82077.1779 1.25812.1779-.50862-.3288-.94967-.7516-1.30211-1.2435-.58533-.817-.92623-1.8248-.92623-2.9098 0-.517.07909-1.0189.22655-1.49085.1121-.3587.2637-.70005.45012-1.01747.22502.2762.46036.54383.70544.80229 2.21074 2.33143 5.21367 3.91783 8.57057 4.33403.3422.0424.6882.0727 1.0373.0903-.0724-.3206-.1173-.6596-.1265-1.0088z" fill="#000" fill-rule="evenodd"/></g></svg>