<svg width="54" height="55" viewBox="0 0 54 55" fill="none" xmlns="http://www.w3.org/2000/svg">
<g clip-path="url(#clip0_380_56)">
<g filter="url(#filter0_d_380_56)">
<mask id="path-1-outside-1_380_56" maskUnits="userSpaceOnUse" x="3" y="4.26221" width="48" height="46" fill="black">
<rect fill="white" x="3" y="4.26221" width="48" height="46"/>
<path d="M7.71128 16.7626H43.7649L43.918 16.767C45.2828 16.8179 46.5747 17.3928 47.5223 18.3707C48.47 19.3487 48.9996 20.6538 49 22.0118V43.0121C49 44.4045 48.4437 45.7399 47.4535 46.7245C46.4633 47.7091 45.1203 48.2622 43.72 48.2622H10.28C8.87966 48.2622 7.53667 47.7091 6.54648 46.7245C5.55628 45.7399 5 44.4045 5 43.0121V22.0118L5.00264 21.8325L5.01144 21.675C4.95034 20.6863 5.17134 19.7006 5.649 18.8313C6.12665 17.9621 6.84152 17.2456 7.71128 16.7626ZM34.92 29.0119C33.9864 29.0119 33.0911 29.3807 32.431 30.0371C31.7709 30.6935 31.4 31.5837 31.4 32.512C31.4 33.4403 31.7709 34.3305 32.431 34.9869C33.0911 35.6433 33.9864 36.012 34.92 36.012C35.8536 36.012 36.7489 35.6433 37.409 34.9869C38.0691 34.3305 38.44 33.4403 38.44 32.512C38.44 31.5837 38.0691 30.6935 37.409 30.0371C36.7489 29.3807 35.8536 29.0119 34.92 29.0119ZM43.5854 10.1554C43.7047 10.5977 43.7654 11.0537 43.7658 11.5117L43.7649 14.1367H15.0531L37.1191 6.44099C38.4717 6.08074 39.9129 6.26951 41.1255 6.96577C42.3382 7.66202 43.223 8.80874 43.5854 10.1537"/>
</mask>
<path d="M7.71128 16.7626H43.7649L43.918 16.767C45.2828 16.8179 46.5747 17.3928 47.5223 18.3707C48.47 19.3487 48.9996 20.6538 49 22.0118V43.0121C49 44.4045 48.4437 45.7399 47.4535 46.7245C46.4633 47.7091 45.1203 48.2622 43.72 48.2622H10.28C8.87966 48.2622 7.53667 47.7091 6.54648 46.7245C5.55628 45.7399 5 44.4045 5 43.0121V22.0118L5.00264 21.8325L5.01144 21.675C4.95034 20.6863 5.17134 19.7006 5.649 18.8313C6.12665 17.9621 6.84152 17.2456 7.71128 16.7626ZM34.92 29.0119C33.9864 29.0119 33.0911 29.3807 32.431 30.0371C31.7709 30.6935 31.4 31.5837 31.4 32.512C31.4 33.4403 31.7709 34.3305 32.431 34.9869C33.0911 35.6433 33.9864 36.012 34.92 36.012C35.8536 36.012 36.7489 35.6433 37.409 34.9869C38.0691 34.3305 38.44 33.4403 38.44 32.512C38.44 31.5837 38.0691 30.6935 37.409 30.0371C36.7489 29.3807 35.8536 29.0119 34.92 29.0119ZM43.5854 10.1554C43.7047 10.5977 43.7654 11.0537 43.7658 11.5117L43.7649 14.1367H15.0531L37.1191 6.44099C38.4717 6.08074 39.9129 6.26951 41.1255 6.96577C42.3382 7.66202 43.223 8.80874 43.5854 10.1537" fill="#6EC7FC"/>
<path d="M7.71128 16.7626V14.7626H7.19328L6.7404 15.0141L7.71128 16.7626ZM43.7649 16.7626L43.822 14.7635L43.7935 14.7626H43.7649V16.7626ZM43.918 16.767L43.9926 14.7684L43.9839 14.7681L43.9751 14.7678L43.918 16.767ZM49 22.0118H51V22.0112L49 22.0118ZM49 43.0121H51H49ZM43.72 48.2622V50.2622V48.2622ZM10.28 48.2622V50.2622V48.2622ZM5 43.0121H3H5ZM5 22.0118L3.00022 21.9824L3 21.9971V22.0118H5ZM5.00264 21.8325L3.00575 21.7209L3.00346 21.7619L3.00286 21.803L5.00264 21.8325ZM5.01144 21.675L7.00833 21.7865L7.01489 21.669L7.00763 21.5516L5.01144 21.675ZM43.7658 11.5117L45.7658 11.5124V11.51L43.7658 11.5117ZM43.7649 14.1367V16.1367H45.7642L45.7649 14.1374L43.7649 14.1367ZM15.0531 14.1367L14.3945 12.2483L15.0531 16.1367V14.1367ZM37.1191 6.44099L36.6044 4.50836L36.5316 4.52774L36.4605 4.55254L37.1191 6.44099ZM7.71128 18.7626H43.7649V14.7626H7.71128V18.7626ZM43.7077 18.7618L43.8609 18.7662L43.9751 14.7678L43.822 14.7635L43.7077 18.7618ZM43.8434 18.7656C44.6948 18.7974 45.4983 19.1559 46.086 19.7625L48.9587 16.979C47.6511 15.6296 45.8709 14.8385 43.9926 14.7684L43.8434 18.7656ZM46.086 19.7625C46.6734 20.3687 46.9997 21.1753 47 22.0124L51 22.0112C50.9994 20.1323 50.2666 18.3288 48.9587 16.979L46.086 19.7625ZM47 22.0118V43.0121H51V22.0118H47ZM47 43.0121C47 43.8704 46.6572 44.6959 46.0433 45.3063L48.8637 48.1427C50.2302 46.784 51 44.9387 51 43.0121H47ZM46.0433 45.3063C45.4291 45.917 44.5936 46.2622 43.72 46.2622V50.2622C45.6471 50.2622 47.4976 49.5011 48.8637 48.1427L46.0433 45.3063ZM43.72 46.2622H10.28V50.2622H43.72V46.2622ZM10.28 46.2622C9.40643 46.2622 8.57092 45.917 7.95667 45.3063L5.13629 48.1427C6.50242 49.5011 8.35288 50.2622 10.28 50.2622L10.28 46.2622ZM7.95667 45.3063C7.34279 44.6959 7 43.8704 7 43.0121H3C3 44.9387 3.76978 46.784 5.13629 48.1427L7.95667 45.3063ZM7 43.0121V22.0118H3V43.0121H7ZM6.99978 22.0413L7.00242 21.8619L3.00286 21.803L3.00022 21.9824L6.99978 22.0413ZM6.99953 21.944L7.00833 21.7865L3.01455 21.5634L3.00575 21.7209L6.99953 21.944ZM7.00763 21.5516C6.96992 20.9414 7.10624 20.3324 7.40179 19.7945L3.8962 17.8682C3.23645 19.0688 2.93076 20.4312 3.01525 21.7983L7.00763 21.5516ZM7.40179 19.7945C7.69699 19.2573 8.13999 18.8122 8.68216 18.5112L6.7404 15.0141C5.54305 15.6789 4.55631 16.6669 3.8962 17.8682L7.40179 19.7945ZM34.92 27.0119C33.4597 27.0119 32.0569 27.5887 31.0208 28.6189L33.8412 31.4553C34.1254 31.1727 34.5132 31.0119 34.92 31.0119V27.0119ZM31.0208 28.6189C29.9844 29.6494 29.4 31.0496 29.4 32.512H33.4C33.4 32.1178 33.5574 31.7375 33.8412 31.4553L31.0208 28.6189ZM29.4 32.512C29.4 33.9744 29.9844 35.3745 31.0208 36.4051L33.8412 33.5687C33.5574 33.2865 33.4 32.9061 33.4 32.512H29.4ZM31.0208 36.4051C32.0569 37.4353 33.4597 38.012 34.92 38.012V34.012C34.5132 34.012 34.1254 33.8512 33.8412 33.5687L31.0208 36.4051ZM34.92 38.012C36.3803 38.012 37.7831 37.4353 38.8192 36.4051L35.9988 33.5687C35.7146 33.8512 35.3268 34.012 34.92 34.012V38.012ZM38.8192 36.4051C39.8556 35.3745 40.44 33.9744 40.44 32.512H36.44C36.44 32.9061 36.2826 33.2865 35.9988 33.5687L38.8192 36.4051ZM40.44 32.512C40.44 31.0496 39.8557 29.6494 38.8192 28.6189L35.9988 31.4553C36.2826 31.7375 36.44 32.1178 36.44 32.512H40.44ZM38.8192 28.6189C37.7831 27.5887 36.3803 27.0119 34.92 27.0119V31.0119C35.3268 31.0119 35.7146 31.1727 35.9988 31.4553L38.8192 28.6189ZM41.6544 10.6765C41.7281 10.9495 41.7655 11.2309 41.7658 11.5134L45.7658 11.51C45.7652 10.8766 45.6813 10.246 45.5163 9.63433L41.6544 10.6765ZM41.7658 11.511L41.7649 14.1361L45.7649 14.1374L45.7658 11.5124L41.7658 11.511ZM43.7649 12.1367H15.0531V16.1367H43.7649V12.1367ZM15.7117 16.0252L37.7777 8.32943L36.4605 4.55254L14.3945 12.2483L15.7117 16.0252ZM37.6338 8.37362C38.4771 8.14903 39.3752 8.26703 40.1297 8.70021L42.1214 5.23133C40.4505 4.27199 38.4664 4.01245 36.6044 4.50836L37.6338 8.37362ZM40.1297 8.70021C40.8837 9.13316 41.4306 9.84414 41.6542 10.674L45.5165 9.63335C45.0153 7.77333 43.7926 6.19089 42.1214 5.23133L40.1297 8.70021Z" fill="#3582B0" mask="url(#path-1-outside-1_380_56)"/>
</g>
</g>
<defs>
<filter id="filter0_d_380_56" x="3" y="4.26221" width="50" height="48" filterUnits="userSpaceOnUse" color-interpolation-filters="sRGB">
<feFlood flood-opacity="0" result="BackgroundImageFix"/>
<feColorMatrix in="SourceAlpha" type="matrix" values="0 0 0 0 0 0 0 0 0 0 0 0 0 0 0 0 0 0 127 0" result="hardAlpha"/>
<feOffset dx="2" dy="2"/>
<feComposite in2="hardAlpha" operator="out"/>
<feColorMatrix type="matrix" values="0 0 0 0 0.207843 0 0 0 0 0.509804 0 0 0 0 0.690196 0 0 0 0.25 0"/>
<feBlend mode="normal" in2="BackgroundImageFix" result="effect1_dropShadow_380_56"/>
<feBlend mode="normal" in="SourceGraphic" in2="effect1_dropShadow_380_56" result="shape"/>
</filter>
<clipPath id="clip0_380_56">
<rect width="54" height="54" fill="white" transform="translate(0 0.262207)"/>
</clipPath>
</defs>
</svg>
