<svg fill="none" height="33" viewBox="0 0 32 33" width="32" xmlns="http://www.w3.org/2000/svg"><path d="m3.78601 25.0912c-.02882-.0952-.05862-.1901-.08939-.2847-.00018-.0005-.00037-.0011-.00056-.0017l-.04461-.1406-.0004-.0012c-.10255-.3201-.20225-.6411-.29907-.9629l-.00213-.0071-.00233-.007-.00898-.0269c-.78736-2.6316-2.17061-7.3043-.17184-11.7375h.00001c.14843-.3293.31528-.6499.49975-.9604l.22297-.3753-.3418-.2716c-1.02835-.81698-2.04082-1.94882-2.599772-3.44355-.071369-.22539-.054101-.46966.048506-.68291.103916-.21597.287326-.3834.511846-.46726.22453-.08386.47278-.07766.69284.01731.21742.09383.39067.26712.48449.48431.4193 1.11064 1.19738 1.99504 2.0504 2.6644l.33072.25952.31245-.28125c.73453-.66116 1.56162-1.21158 2.45513-1.63384l.00215-.00103c2.18541-1.04559 5.10081-1.60436 8.94431-1.47361l.517.01759v-.39576c1.5231-2.82283 4.6005-3.5678 6.2271-3.49405h.0001c.4706.02128.7963.23367 1.0153.52132.2286.30048.3404.68624.3404 1.01348v4.00685.30823l.2754.13848c1.5137.76119 2.5012 1.76112 3.1063 2.99007.6 1.2236.7928 2.6201.8264 4.1082l.0052.2297.1776.1456 1.5886 1.3029.0001.0001c.0736.0603.1329.1362.1736.2223.0407.086.0617.18.0617.2752v.0004 5.0703.0005c-.0004.0932-.021.1851-.0605.2695l-.0004.0009c-1.1762 2.5306-3.2608 3.9195-5.8361 4.9268l-.3179.1244v.3413 1.456c0 .4736-.1881.9278-.523 1.2627s-.7891.523-1.2627.523h-4c-.4736 0-.9278-.1881-1.2627-.523s-.523-.7891-.523-1.2627v-1.1063-.5h-.5-4.8915-.5v.5.928c0 .4736-.1881.9278-.523 1.2627s-.7891.523-1.26267.523h-4.03886c-.4736 0-.9278-.1881-1.26269-.523-.33488-.3349-.52302-.7891-.52302-1.2627v-3.9223-.074zm17.14939-8.9744.3625-.3444-.3625.3444c.3975.4183.9405.668 1.5168.6975.3049.0156.6097-.031.896-.1369s.5481-.269.7694-.4793c.2213-.2102.3975-.4633.5179-.7438.1204-.2806.1825-.5826.1825-.8879s-.0621-.6074-.1825-.8879-.2966-.5336-.5179-.7438c-.2213-.2103-.4831-.3734-.7694-.4793s-.5911-.1525-.896-.1369c-.5763.0295-1.1193.2791-1.5168.6975-.3974.4183-.6191.9733-.6191 1.5504s.2217 1.1321.6191 1.5504zm-5.5068-2.4835c1.0647 0 1.9286-.8639 1.9286-1.9286 0-1.0642-.8611-1.92859-1.9286-1.92859h-4.2377c-.5115 0-1.002.20319-1.36372.56489-.36168.3617-.56486.8522-.56486 1.3637s.20318 1.002.56486 1.3637c.36172.3617.85222.5649 1.36372.5649z" fill="#813af4" stroke="#3e1fb9"/></svg>