<svg fill="none" height="33" viewBox="0 0 32 33" width="32" xmlns="http://www.w3.org/2000/svg"><path d="m17.2057 17.5899c.0405.0168.0839.0254.1277.0254.0439 0 .0873-.0086.1278-.0254s.0773-.0414.1082-.0725zm0 0c-.0405-.0168-.0773-.0414-.1083-.0725zm9.8211 9.9364-.0004.0003c-.8676.8682-2.0181 1.3304-3.778 1.5671-1.7742.2386-4.0915.2397-7.2483.2397s-5.4738-.0011-7.24803-.2397c-1.75972-.2367-2.91074-.6988-3.77977-1.5672-.86759-.8676-1.32946-2.0181-1.56601-3.778-.23848-1.7743-.23954-4.0916-.23954-7.2484s.00106-5.4738.23954-7.24808c.23652-1.7597.69833-2.91073 1.56602-3.77973.86828-.86762 2.01921-1.32946 3.7792-1.566 1.77449-.23848 4.09179-.23954 7.24859-.23954s5.4744.00106 7.2489.23954c1.7601.23656 2.9105.69843 3.7774 1.56589l.0001.00012c.8683.86831 1.3305 2.01924 1.5672 3.77926.2386 1.77444.2397 4.09174.2397 7.24854s-.0011 5.4744-.2397 7.2488c-.2367 1.7601-.6989 2.9105-1.5669 3.7774zm-9.1934-13.6929c0 .7381.5337 1.3521 1.2361 1.4768l-1.7361 1.7361-1.9971-1.9971-.0001-.0001c-.5313-.531-1.2517-.8292-2.0028-.8292s-1.4715.2982-2.0027.8292l-.0002.0001-3.0517 3.0517c-.14408.136-.25981.2993-.34048.4803-.08198.184-.12606.3826-.12962.584-.00355.2014.0335.4015.10894.5883s.18773.3564.33017.4988l.35355-.3535-.35355.3536c.14243.1424.3121.2547.49889.3301.18677.0755.38682.1125.58823.109.20141-.0036.40003-.0477.58404-.1297.18103-.0806.34423-.1964.48023-.3404l2.9342-2.9342 1.9971 1.9971.0002.0001c.5312.5309 1.2516.8292 2.0027.8292s1.4715-.2983 2.0028-.8292l1.854-1.8531c.0537.2995.1977.578.4159.7961.2813.2813.6628.4393 1.0606.4393.3979 0 .7794-.158 1.0607-.4393s.4393-.6628.4393-1.0607v-3.3333c0-.3978-.158-.7793-.4393-1.0606-.2813-.2814-.6628-.4394-1.0607-.4394h-3.3333c-.3978 0-.7793.1581-1.0606.4394l.3535.3535-.3535-.3535c-.2813.2813-.4394.6628-.4394 1.0606z" fill="#3aa3f4" stroke="#1f76b9"/></svg>