<svg fill="none" height="32" viewBox="0 0 32 32" width="32" xmlns="http://www.w3.org/2000/svg"><path d="m5.91607 4.583.0003-.0003c.67225-.67283 1.56806-1.03733 2.96494-1.2252 1.41129-.18981 3.25719-.19087 5.78539-.19087h2.6666c2.5282 0 4.3741.00106 5.7854.19087 1.3969.18787 2.2927.55237 2.9649 1.2252l.0003.0003c.6729.67225 1.0374 1.56806 1.2252 2.96494.1898 1.41126.1909 3.25726.1909 5.78536v5.3333c0 2.5282-.0011 4.3741-.1909 5.7854-.1878 1.3969-.5523 2.2927-1.2252 2.9649l-.0003.0003c-.6722.6728-1.568 1.0373-2.9649 1.2252-1.4113.1898-3.2572.1909-5.7854.1909h-2.6666c-2.5282 0-4.3741-.0011-5.78539-.1909-1.39688-.1879-2.29269-.5524-2.96494-1.2252l-.0003-.0003c-.67283-.6722-1.03732-1.568-1.2252-2.9649-.18981-1.4113-.19087-3.2572-.19087-5.7854v-5.3333c0-2.5281.00106-4.3741.19087-5.78536.18788-1.39688.55237-2.29269 1.2252-2.96494zm4.75063 7.2503c-.3979 0-.77939.158-1.06069.4393-.28131.2813-.43934.6629-.43934 1.0607s.15803.7793.43934 1.0607c.2813.2813.66279.4393 1.06069.4393h10.6666c.3979 0 .7794-.158 1.0607-.4393.2813-.2814.4393-.6629.4393-1.0607s-.158-.7794-.4393-1.0607-.6628-.4393-1.0607-.4393zm0 5.3333c-.3979 0-.77939.1581-1.06069.4394-.28131.2813-.43934.6628-.43934 1.0606s.15803.7794.43934 1.0607c.2813.2813.66279.4393 1.06069.4393h6.6666c.3979 0 .7794-.158 1.0607-.4393s.4393-.6629.4393-1.0607-.158-.7793-.4393-1.0606-.6628-.4394-1.0607-.4394z" fill="#2fca4b" stroke="#2d9640"/></svg>