<svg fill="none" height="32" viewBox="0 0 32 32" width="32" xmlns="http://www.w3.org/2000/svg"><g fill="#2fca4b" stroke="#2d9640"><path d="m8.37311 5.93833.4602-.03675v-.46166-2.10667c0-.13261.05267-.25978.14644-.35355s.22095-.14645.35356-.14645c.1326 0 .25978.05268.35355.14645l.34634-.34634-.34634.34634c.09377.09377.14645.22094.14645.35355v2.01734.50987l.50979-.00997c.8808-.01722 1.8702-.01724 2.9902-.01724h5.3333c1.1201 0 2.1095.00002 2.9903.01724l.5097.00997v-.50987-2.01734c0-.13261.0527-.25978.1465-.35355s.2209-.14645.3535-.14645.2598.05268.3536.14645.1464.22094.1464.35355v2.10534.46131l.4599.03707c1.884.15187 2.9937.51447 3.7903 1.31225l.0005.00051c.7185.71739 1.084 1.68757 1.2605 3.25017h-25.35559c.17654-1.56172.54205-2.53286 1.2604-3.25017l.0005-.00051c.79661-.79776 1.90495-1.16035 3.79-1.31089z"/><path d="m27.4173 27.417-.0003.0003c-.6722.6728-1.568 1.0373-2.9649 1.2252-1.4113.1898-3.2572.1908-5.7854.1908h-5.3333c-2.5281 0-4.37408-.001-5.78534-.1908-1.39688-.1879-2.29269-.5524-2.96494-1.2252l-.0003-.0003c-.67283-.6723-1.03733-1.5681-1.2252-2.965-.18981-1.4112-.19087-3.2572-.19087-5.7853v-2.6667c0-.9168.00001-1.7461.00946-2.5h25.64769c.0095.7539.0095 1.5832.0095 2.5v2.6667c0 2.5281-.0011 4.3741-.1909 5.7853-.1878 1.3969-.5523 2.2927-1.2252 2.965zm-6.0469-11.38.3535.3535-.3535-.3535c-.3438.3438-.537.8101-.537 1.2963 0 .4863.1932.9526.537 1.2964l.3535-.3536-.3535.3536c.3438.3438.8101.537 1.2963.537.4863 0 .9526-.1932 1.2964-.537s.537-.8101.537-1.2964c0-.4862-.1932-.9525-.537-1.2963s-.8101-.537-1.2964-.537c-.4862 0-.9525.1932-1.2963.537zm1.2963 8.463c.4863 0 .9526-.1932 1.2964-.537s.537-.8101.537-1.2963c0-.4863-.1932-.9526-.537-1.2964s-.8101-.537-1.2964-.537c-.4862 0-.9525.1932-1.2963.537s-.537.8101-.537 1.2964c0 .4862.1932.9525.537 1.2963s.8101.537 1.2963.537zm-5.3703-5.8703c.3439-.3438.537-.8101.537-1.2964 0-.4862-.1931-.9525-.537-1.2963-.3438-.3438-.8101-.537-1.2963-.537s-.9526.1932-1.2964.537-.537.8101-.537 1.2963c0 .4863.1932.9526.537 1.2964s.8101.537 1.2964.537c.4862 0 .9525-.1932 1.2963-.537zm0 5.3333c.3439-.3438.537-.8101.537-1.2963 0-.4863-.1931-.9526-.537-1.2964-.3438-.3438-.8101-.537-1.2963-.537s-.9526.1932-1.2964.537-.537.8101-.537 1.2964c0 .4862.1932.9525.537 1.2963s.8102.537 1.2964.537.9525-.1932 1.2963-.537zm-7.96299-4.7963c.48624 0 .95259-.1932 1.29639-.537s.5369-.8101.5369-1.2964c0-.4862-.1931-.9525-.5369-1.2963s-.81016-.537-1.29639-.537-.95254.1932-1.29636.537c-.34381.3438-.53697.8101-.53697 1.2963 0 .4863.19316.9526.53697 1.2964.34382.3438.81013.537 1.29636.537zm0 5.3333c.48623 0 .95259-.1932 1.29639-.537s.5369-.8101.5369-1.2963c0-.4863-.1931-.9526-.5369-1.2964s-.81016-.537-1.29639-.537c-.48622 0-.95254.1932-1.29636.537-.34381.3438-.53697.8101-.53697 1.2964 0 .4862.19316.9525.53697 1.2963.34382.3438.81014.537 1.29636.537z"/></g></svg>