<svg width="177" height="158" viewBox="0 0 177 158" fill="none" xmlns="http://www.w3.org/2000/svg">
<g style="mix-blend-mode:multiply" opacity="0.5">
<path d="M81.29 155.95C113.75 155.21 140.91 155.59 153.21 154.56C163.85 153.67 171.58 149.8 175.53 142.64C180.78 133.11 165.21 124.16 159.18 116.13C153.41 108.44 149.39 101.14 141.23 96.89C126.59 89.28 114.44 94.19 97.96 94.98C88.3 95.45 52.39 94.33 52.39 94.33C52.39 94.33 34.93 91.67 27.58 103.62C20.23 115.57 6.69 129.24 3.03 134.61C1.91 136.25 0.87 138.18 0 140.27C0.91 143.36 2.29 145.97 4.38 147.62C12.95 154.37 48.83 156.69 81.29 155.95Z" fill="#98D5FB"/>
</g>
<path d="M61.76 1.05005C61.76 1.05005 48.64 -1.77995 43.11 10.9301C37.58 23.6401 27.4 38.19 24.65 43.91C21.9 49.6301 19.74 58.5601 20.9 66.2801C22.06 74.0001 22.8 102.87 23.31 109.94C23.82 117.01 21.36 141.32 27.8 148.51C34.24 155.69 61.21 158.16 85.61 157.37C110.01 156.58 130.43 156.99 139.68 155.9C148.93 154.8 158.55 150.61 159.3 126.23C160.04 102.19 159.37 94.7301 159.57 84.4801C159.94 66.1401 166.03 56.5 152.65 35.6C145.9 25.05 143.9 12.2001 134.11 4.99005C123.12 -3.11995 108.41 0.890051 96.02 1.74005C88.76 2.23005 61.77 1.05005 61.77 1.05005H61.76Z" fill="#98D5FB"/>
<g style="mix-blend-mode:multiply" opacity="0.5">
<path d="M63.3099 5.21001C63.3099 5.21001 50.8899 2.53001 45.6599 14.56C40.4299 26.59 30.7899 40.36 28.1899 45.77C25.5899 51.18 23.5399 59.64 24.6399 66.94C25.7399 74.25 26.4399 101.57 26.9199 108.26C27.4099 114.95 25.0699 137.96 31.1699 144.76C37.2699 151.56 62.7899 153.9 85.8899 153.15C108.98 152.4 128.31 152.79 137.06 151.75C145.81 150.71 154.92 146.74 155.63 123.67C156.33 100.92 155.69 93.86 155.89 84.15C156.24 66.79 162 57.67 149.34 37.89C142.95 27.91 141.06 15.74 131.79 8.92001C121.37 1.25001 107.45 5.05001 95.7199 5.85001C88.8499 6.32001 63.2999 5.20001 63.2999 5.20001L63.3099 5.21001Z" fill="#98D5FB"/>
</g>
<g style="mix-blend-mode:multiply" opacity="0.29">
<path d="M66.6498 88.53C66.6498 88.53 90.8698 89.59 97.3798 89.15C106.46 88.53 116.92 86.02 125.83 89.08C127.86 77.23 128.57 31.1 128.79 10.04C119.01 3.57003 106.25 6.99003 95.4498 7.72003C88.9398 8.16003 64.7198 7.10003 64.7198 7.10003C64.7198 7.10003 55.6698 5.15003 50.0898 12.36C50.6698 31.85 53.2398 84.73 55.8998 90.34C61.0098 87.32 66.6398 88.53 66.6398 88.53H66.6498Z" fill="#98D5FB"/>
</g>
<g style="mix-blend-mode:screen" opacity="0.77">
<path d="M64.7301 9.02006C64.7301 9.02006 52.9601 6.48006 48.0001 17.8901C43.0401 29.3001 33.9101 42.3501 31.4401 47.4801C28.9701 52.6101 27.0401 60.6301 28.0801 67.5501C29.1201 74.4801 29.7801 100.38 30.2501 106.72C30.7101 113.06 28.5001 134.88 34.2801 141.33C40.0601 147.78 64.2601 149.99 86.1501 149.28C108.04 148.57 126.36 148.94 134.66 147.96C142.96 146.98 151.59 143.21 152.26 121.34C152.92 99.7701 152.32 93.0801 152.51 83.8801C152.84 67.4301 158.31 58.7801 146.3 40.0201C140.24 30.5501 138.45 19.0201 129.67 12.5601C119.79 5.29006 106.59 8.89006 95.4801 9.65006C88.9701 10.0901 64.7501 9.03006 64.7501 9.03006L64.7301 9.02006Z" fill="#98D5FB"/>
</g>
<g style="mix-blend-mode:multiply" opacity="0.5">
<path d="M86.1401 149.28C108.03 148.57 126.35 148.94 134.65 147.96C142.06 147.08 149.74 143.97 151.77 127.71C150.8 125.74 149.63 123.67 148.21 121.45C142.15 111.98 140.36 100.45 131.58 93.99C121.7 86.72 108.5 90.32 97.3901 91.08C90.8801 91.52 66.6601 90.46 66.6601 90.46C66.6601 90.46 54.8901 87.92 49.9301 99.33C44.9701 110.74 35.8401 123.79 33.3701 128.92C32.6201 130.49 31.9101 132.33 31.3301 134.32C31.9401 137.27 32.8801 139.76 34.2901 141.34C40.0701 147.79 64.2701 150 86.1601 149.29L86.1401 149.28Z" fill="#98D5FB"/>
</g>
<g style="mix-blend-mode:screen" opacity="0.52">
<path d="M134.65 147.95C142.95 146.97 151.58 143.2 152.25 121.33C152.59 110.31 152.6 103.18 152.55 97.61C150.85 100.88 148.98 103.9 147.16 105.71C141.39 111.48 148.6 80.7 144.27 84.55C139.94 88.4 108.68 131.68 99.0699 128.79C89.4499 125.9 118.31 102.34 116.86 94.17C115.42 86 54.3499 135.04 51.4599 132.64C48.5699 130.24 43.2899 130.72 35.5899 131.2C32.1699 131.41 30.7299 126.6 30.1899 121.19C30.2699 129.1 30.9799 137.67 34.2599 141.32C40.0399 147.77 64.2399 149.98 86.1299 149.27C108.02 148.56 126.34 148.93 134.64 147.95H134.65Z" fill="#98D5FB"/>
</g>
<g style="mix-blend-mode:multiply" opacity="0.5">
<path d="M149.09 58.59C146.843 57.95 142.357 58.43 135.63 60.03C125.53 62.43 114.95 63.88 97.6401 59.55C80.3301 55.22 60.1301 60.51 49.5501 59.55C38.9701 58.59 45.2201 60.99 39.4501 60.51C33.6801 60.03 31.76 60.03 28.39 60.03C28.2501 60.03 28.1101 60.08 27.9801 60.17C27.7301 62.65 27.7201 65.17 28.0801 67.55C28.9601 73.39 29.5701 92.7 30.0101 102.43C30.3801 89.57 31.4801 73.4 34.6501 72.53C39.9401 71.09 39.4601 68.2 46.1901 68.68C52.92 69.16 57.2501 69.16 59.6501 69.16C62.0501 69.16 52.92 89.36 58.6901 86.47C64.46 83.58 76.96 67.23 78.89 68.2C80.81 69.16 75.0401 73.97 79.3701 72.53C83.7001 71.09 89.9501 64.84 97.1601 65.8C104.37 66.76 116.4 71.57 125.05 68.69C133.71 65.8 136.11 61.96 136.59 64.84C137.07 67.72 126.97 82.15 128.9 80.71C130.82 79.27 139.48 66.28 141.4 67.25C143.32 68.21 145.25 66.77 149.09 69.65C151.19 71.23 151.71 67.07 151.76 62.97C151.03 60.69 150.19 58.9 149.09 58.59Z" fill="#98D5FB"/>
</g>
<g style="mix-blend-mode:screen">
<path d="M36.56 56.66C34.04 57.22 33.4 55.57 31.56 54.54C30.29 53.83 27.55 53.42 27.19 51.92C26.96 50.96 27.24 49.97 27.52 49.02C27.92 47.65 28.33 46.29 28.73 44.92C26.55 45.96 25.12 48.08 23.8 50.1C20.94 54.49 22.13 63.25 22.74 68.24C22.84 69.02 22.95 69.81 23.08 70.6C25.48 85.03 25 60.02 28.37 60.02C31.74 60.02 33.66 60.02 39.43 60.5C45.2 60.98 38.95 58.58 49.53 59.54C60.11 60.5 80.31 55.21 97.62 59.54C114.93 63.87 125.51 62.43 135.61 60.02C145.71 57.61 145.71 57.62 149.07 58.58C152.44 59.54 153.4 74.45 156.28 74.93C159.17 75.41 157.24 60.5 157.24 54.73C157.24 48.96 149.32 37.89 149.32 37.89C149.32 37.89 156.28 50.41 152.43 51.37C148.58 52.33 150.51 47.04 143.77 50.41C137.04 53.78 118.28 59.07 114.44 57.14C110.59 55.22 113.96 49.45 111.55 49.93C109.15 50.41 107.22 53.78 100.97 54.26C94.72 54.74 91.83 55.22 84.14 53.78C76.45 52.34 53.84 54.74 48.07 55.22C42.3 55.7 40.86 55.7 36.53 56.66H36.56Z" fill="#98D5FB"/>
</g>
<g style="mix-blend-mode:multiply" opacity="0.57">
<g style="mix-blend-mode:multiply" opacity="0.5">
<path d="M31.5599 54.5401C33.4 55.57 34.04 57.2201 36.56 56.66C40.89 55.7001 42.3299 55.7001 48.0999 55.2201C53.8699 54.7401 76.4699 52.33 84.1699 53.78C91.8699 55.23 94.75 54.74 101 54.26C107.25 53.78 109.17 50.41 111.58 49.93C113.98 49.4501 110.62 55.2201 114.47 57.14C118.32 59.06 137.07 53.7701 143.8 50.41C143.91 50.3601 143.99 50.32 144.1 50.2701C137.25 49.1501 128.07 47.09 124.09 43.67C117.36 37.9 88.5 43.67 84.66 41.75C80.81 39.83 90.4299 34.06 86.0999 33.09C81.77 32.1301 72.6399 30.69 63.02 29.24C54.3899 27.94 57.38 14.64 60.86 8.80005C56.97 9.03005 51.13 10.68 48 17.88C43.04 29.29 33.91 42.34 31.44 47.4701C30.6 49.2201 29.82 51.3201 29.2 53.5801C30.05 53.93 30.97 54.2 31.57 54.53L31.5599 54.5401Z" fill="#98D5FB"/>
</g>
</g>
<g style="mix-blend-mode:screen" opacity="0.52">
<path d="M151.31 49.53C150.14 46.63 148.52 43.5 146.29 40.01C140.23 30.54 138.44 19.01 129.66 12.55C119.78 5.28005 106.58 8.88005 95.4699 9.64005C88.9599 10.08 64.7399 9.02005 64.7399 9.02005C64.7399 9.02005 59.5899 7.91005 54.6599 10.46C54.5199 10.84 54.4099 11.22 54.3699 11.61C53.6799 17.37 62.0599 13.53 72.3199 16.1C82.5799 18.66 95.3999 14.18 94.1199 18.66C92.8399 23.15 78.7299 27 87.7099 26.35C96.6898 25.71 101.82 21.86 105.66 24.43C109.51 26.99 103.1 31.48 107.58 31.48C112.06 31.48 120.4 30.84 125.53 32.76C130.66 34.68 144.77 43.0201 148.61 46.87C149.56 47.82 150.47 48.73 151.32 49.5201L151.31 49.53Z" fill="#98D5FB"/>
</g>
<g style="mix-blend-mode:screen">
<path d="M107.69 79.38C108.59 78.79 109.66 80.18 108.84 80.87C96.0899 91.57 83.1899 102.39 71.41 114.16C66.2999 119.26 61.9399 124.71 58.8599 131.26C55.7399 137.91 51.3299 142.51 44.0699 144.5C36.9999 146.44 33.9799 135.27 41.0499 133.56C48.0099 131.88 49.9099 125 54.0599 119.96C58.2999 114.82 64.0899 111.09 69.3799 107.1C82.0199 97.58 94.4299 88.05 107.68 79.38H107.69ZM48.0099 145.47C53.9699 146.03 59.6999 143.12 64.3699 139.68C68.5099 136.63 73.5099 132.73 75.3799 127.79C75.7699 126.76 74.5199 126.17 73.7199 126.52C69.3999 128.4 66.2899 132.78 62.5799 135.62C57.9899 139.14 53.0999 140.94 47.6099 142.55C45.9299 143.04 46.3799 145.32 48.0099 145.47ZM128.56 76.21C120.05 79.87 113.1 88.52 106.85 95.08C103.57 98.52 100.27 101.93 96.8999 105.28C93.5699 108.59 89.3699 111.64 86.7399 115.53C86.1599 116.38 87.1199 117.54 88.0599 117.25C96.3499 114.76 103.3 105.53 108.94 99.42C112.17 95.93 115.37 92.43 118.75 89.08C122.44 85.42 126.75 82.22 130.24 78.4C131.37 77.16 129.96 75.6 128.55 76.21H128.56Z" fill="#98D5FB"/>
</g>
<g style="mix-blend-mode:screen" opacity="0.52">
<path d="M36.0999 91.3701C33.2799 97.8601 33.2999 105.87 32.8199 112.84C32.3699 119.34 31.8499 126.19 34.5699 132.29C38.4399 140.97 52.6799 152.72 61.6599 143.59C62.6599 142.57 62.8899 140.49 61.6599 139.51C58.4099 136.91 54.5099 135.81 50.9399 133.78C47.0599 131.57 44.7499 128.05 43.7299 123.77C41.2199 113.28 43.5499 101.4 38.9799 91.3701C38.4899 90.2901 36.5799 90.2601 36.0999 91.3701Z" fill="#98D5FB"/>
</g>
<g style="mix-blend-mode:screen" opacity="0.52">
<path d="M68.2099 146.21C70.0899 146.8 71.9799 147.04 73.9399 147.16C75.7699 147.28 77.8199 147.43 79.3899 146.37C80.5799 145.57 80.7699 143.7 79.3899 142.94C77.8099 142.07 76.0699 142.22 74.3099 142.19C72.4599 142.15 70.6299 141.97 68.7799 141.96C66.2899 141.94 65.8999 145.49 68.1999 146.21H68.2099Z" fill="#98D5FB"/>
</g>
<g style="mix-blend-mode:screen" opacity="0.52">
<path d="M95.65 147.58C99.98 149.21 105.23 148.71 109.8 148.8C114.44 148.89 119.13 148.68 123.71 147.95C131.98 146.63 138.98 144.15 144.98 138.16C145.6 137.54 144.98 136.2 144.06 136.58C136.61 139.66 128.19 139.31 120.27 139.64C116.1 139.82 111.95 140.29 107.83 140.92C103.61 141.57 98.96 141.82 95.16 143.86C93.5 144.75 94.11 146.99 95.64 147.57L95.65 147.58Z" fill="#98D5FB"/>
</g>
<g style="mix-blend-mode:screen">
<path d="M74.9101 13.32C84.6401 17.25 96.4001 16.53 106.73 16.44C111.89 16.39 115.87 17.61 120.72 18.94C123.28 19.64 126.77 20.36 127.8 17.13C128.85 13.79 125.2 11.09 122.44 10.29C118.53 9.15004 114.44 10.78 110.57 11.51C98.8101 13.74 86.8301 10.71 75.0901 12C74.3201 12.08 74.1901 13.04 74.9101 13.33V13.32Z" fill="#98D5FB"/>
</g>
<g style="mix-blend-mode:screen">
<path d="M127.54 23.38C128.01 24.38 128.43 25.34 129.08 26.24C129.47 26.77 129.83 27.35 130.3 27.81C130.79 28.29 131.4 28.68 131.95 29.1C133.9 30.59 137.17 28.08 136.24 25.8C136 25.21 135.79 24.6 135.51 24.03C135.19 23.39 134.66 22.84 134.22 22.28C133.53 21.42 132.71 20.76 131.87 20.05C129.44 18.01 126.22 20.51 127.55 23.38H127.54Z" fill="#98D5FB"/>
</g>
<g style="mix-blend-mode:screen">
<path d="M35.4899 123.54C34.2499 127.27 36.0099 131.45 37.8399 134.68C39.5999 137.79 42.5299 142.58 46.6699 142.17C48.5199 141.99 49.4499 140.66 49.1899 138.86C48.7299 135.64 45.0599 133 43.3999 130.27C41.7499 127.57 40.0999 124.34 37.1499 122.86C36.4799 122.52 35.7299 122.81 35.4899 123.53V123.54Z" fill="#98D5FB"/>
</g>
<g style="mix-blend-mode:screen">
<path d="M51.4799 144.19C51.6099 144.57 51.7499 144.85 51.9899 145.16C52.2499 145.49 52.5399 145.72 52.9299 145.88C53.0399 145.94 53.1599 145.98 53.2799 146.02C53.4499 146.08 53.3699 146.05 53.0599 145.92C53.1599 146.04 53.4299 146.14 53.5699 146.22C54.0099 146.48 52.9599 145.75 53.6799 146.3C53.9599 146.52 54.2599 146.64 54.5999 146.76C56.2599 147.37 57.8699 145.52 57.4099 143.95C57.0499 142.72 55.9299 141.9 54.7499 141.54C54.0099 141.31 53.2399 141.34 52.5599 141.75C51.7899 142.22 51.1699 143.26 51.4899 144.18L51.4799 144.19Z" fill="#98D5FB"/>
</g>
<g style="mix-blend-mode:screen">
<path d="M101.58 145.71C106.95 146.79 113.94 146.05 119 144.11C119.67 143.86 119.79 142.84 119 142.63C116.02 141.86 113.49 141.68 110.38 141.88C107.5 142.06 104.34 142.04 101.58 142.92C100.32 143.33 100.1 145.4 101.58 145.7V145.71Z" fill="#98D5FB"/>
</g>
<g style="mix-blend-mode:screen" opacity="0.52">
<path d="M36.03 68.57C40.17 69.95 44.95 69.93 49.3 70.05C51.74 70.11 54.17 70.09 56.61 70.08C59.69 70.08 59.16 69.8 58.93 72.61C58.8 74.2 60.48 75.9 62.05 74.71C65.28 72.25 66.08 66.01 61.24 64.91C57.8 64.12 53.44 65.08 49.9 65.09C45.42 65.09 40.71 64.5 36.28 65.19C34.31 65.49 34.19 67.96 36.04 68.58L36.03 68.57Z" fill="#98D5FB"/>
</g>
<g style="mix-blend-mode:screen" opacity="0.52">
<path d="M71.5801 69.0101C76.8301 67.9601 82.7201 69.1401 88.0601 69.4101C92.2401 69.6301 97.3701 70.4001 101.13 68.3501C102.06 67.8501 101.69 66.6401 100.99 66.1701C96.9001 63.4601 89.8101 64.1401 85.0401 63.9801C80.0601 63.8201 74.4101 63.0601 70.1001 66.0301C68.4301 67.1801 69.8201 69.3401 71.5701 68.9901L71.5801 69.0101Z" fill="#98D5FB"/>
</g>
</svg>
