<svg width="217" height="207" viewBox="0 0 217 207" fill="none" xmlns="http://www.w3.org/2000/svg">
<g clip-path="url(#clip0_323_3565)">
<g style="mix-blend-mode:multiply" opacity="0.5">
<path d="M107.02 201.51C139.48 200.77 166.64 201.15 178.94 200.12C189.58 199.23 197.31 195.36 201.26 188.2C206.51 178.67 190.94 169.72 184.91 161.69C179.14 154 175.12 146.7 166.96 142.45C152.32 134.84 140.17 139.75 123.69 140.54C114.03 141.01 78.12 139.89 78.12 139.89C78.12 139.89 60.66 137.23 53.31 149.18C45.96 161.13 32.42 174.8 28.76 180.17C27.64 181.81 26.6 183.74 25.73 185.83C26.64 188.92 28.02 191.53 30.11 193.18C38.68 199.93 74.56 202.25 107.02 201.51Z" fill="#98D5FB"/>
</g>
<path d="M179.02 86.29C177.53 84.23 176.26 82.08 175.09 79.91C174.63 79.31 174.17 78.71 173.7 78.11C170.13 73.52 166.32 68.84 161.4 65.62C152.42 59.74 141.32 59.68 130.96 59.77C118.29 59.88 105.61 59.66 92.9599 60.32C87.3799 60.61 81.1999 60.32 76.1699 63.11C71.7399 65.57 68.5799 69.92 65.2999 73.67C61.2899 78.25 57.5599 83.13 53.8599 87.96C52.6499 89.54 51.3599 91.18 50.1699 92.88C49.9299 93.27 49.7099 93.64 49.5299 93.97C46.6199 99.26 44.2199 107.58 45.2299 114.8C46.2399 122.06 46.3399 149.52 46.7099 156.32C46.8799 159.5 46.2999 166.33 46.2899 173.45C46.5699 175.82 47.2499 178.11 48.7999 180.01C53.4399 185.72 62.0899 186.97 69.3099 187.14C73.8999 187.25 78.4799 186.95 83.0599 186.7C87.9299 186.43 92.8099 186.31 97.6799 186.16C107.66 185.86 117.6 185.96 127.58 186.09C135.65 186.19 143.73 186.17 151.8 186.16C153.35 186.02 154.9 185.89 156.45 185.79C165.53 185.23 175.15 184.9 182.76 179.78C184.43 178.66 185.6 177.23 186.43 175.63C187.29 173.19 187.65 170.5 187.8 167.85C187.87 147.95 187.11 141.11 187.09 131.97C187.05 114.68 193.03 105.67 179 86.32L179.02 86.29Z" fill="#98D5FB"/>
<g style="mix-blend-mode:multiply" opacity="0.5">
<path d="M183.84 151.49C183.66 142.66 183.31 137.68 183.31 131.64C183.3 115.27 188.96 106.74 175.71 88.4101C173.61 85.5001 171.96 82.4 170.39 79.33C169.41 77.94 168.42 76.5501 167.44 75.1601C164.35 70.8001 160.73 66.99 155.51 65.35C151.15 63.98 146.53 63.96 142.01 64.15C137.03 64.37 132.08 64.71 127.09 64.79C115.75 64.98 104.41 64.66 93.07 64.82C88.52 64.88 83.94 65.15 79.6 66.61C77.6 67.28 75.71 68.2501 74 69.4801C71.94 70.9701 70.21 72.96 68.49 74.82C64.89 78.7 61.74 82.82 58.91 87.29C56.81 90.59 54.76 93.93 52.39 97.0401C49.97 102.05 48.16 109.15 49.04 115.4C49.84 121.11 50.07 139.98 50.32 149.92C50.38 150.13 50.43 150.35 50.42 150.6C50.41 151.14 50.4 151.69 50.39 152.24C50.42 153.22 50.46 154.05 50.49 154.68C50.56 155.99 50.5 157.96 50.41 160.31C50.58 165.3 51.15 170.29 52.71 175.04C52.82 175.36 52.94 175.68 53.06 175.99C53.82 177.07 54.76 178.03 55.95 178.77C59.71 181.12 64.41 181.46 68.85 181.57C74.28 181.71 79.71 181.81 85.14 181.85C97.11 181.95 109.07 181.55 121.04 181.32C132.69 181.1 144.32 180.89 155.95 180.28C161.05 180.01 166.17 179.66 171.16 178.63C173.92 178.06 176.74 177.29 179.29 176.11C180.55 175.03 181.58 173.76 182.21 172.21C183.42 169.26 183.57 165.85 183.75 162.72C183.91 159.95 183.94 157.18 183.91 154.41C183.91 154.11 183.91 153.82 183.9 153.53C183.89 152.84 183.88 152.15 183.86 151.46L183.84 151.49Z" fill="#98D5FB"/>
</g>
<g style="mix-blend-mode:multiply" opacity="0.29">
<path d="M91.7099 136.01C91.7099 136.01 116.6 136.9 123.29 136.53C132.62 136.01 143.35 133.92 152.53 136.47C154.48 126.6 154.67 88.86 154.66 71.98C144.8 66.83 132.03 69.55 121.2 70.13C114.67 70.48 90.3799 69.64 90.3799 69.64C90.3799 69.64 81.3199 68.09 75.6499 73.83C75.9999 89.48 77.9799 132.85 80.6499 137.53C85.9299 135.01 91.6999 136.02 91.6999 136.02L91.7099 136.01Z" fill="#98D5FB"/>
</g>
<g style="mix-blend-mode:screen" opacity="0.77">
<path d="M174.07 94.44C173.9 94.2 173.74 93.96 173.57 93.72C173.29 93.32 173 92.92 172.7 92.51C171.12 90.38 169.82 88.13 168.61 85.87C167.4 83.79 166.25 81.68 165.16 79.55C164.59 78.44 164.01 77.29 163.34 76.22C163.25 76.07 163.15 75.93 163.05 75.78C162.84 75.46 162.62 75.15 162.39 74.85C161.23 73.38 159.62 72.4 157.96 71.57C154.13 69.67 149.86 69.28 145.66 69.04C135.99 68.49 126.32 69.46 116.66 69.86C107.17 70.25 97.6998 70.3 88.1998 70.16C84.0898 70.1 80.0598 70.27 76.4598 72.44C73.3598 74.31 70.5398 77.22 69.1798 80.62C68.9298 81.24 68.5098 81.75 67.9798 82.05C63.2698 89.27 58.0998 95.99 56.2798 99.23C53.6698 103.87 51.5398 111.16 52.4698 117.49C53.3998 123.84 53.5598 147.86 53.9098 153.8C54.0498 156.14 53.7098 160.72 53.6098 165.81C54.0998 167.77 54.9998 169.58 56.6298 170.99C61.0498 174.81 67.8398 175.71 73.6898 176.37C86.8398 177.86 100.17 177.19 113.4 177.17C126.85 177.15 140.26 176.47 153.69 175.91C157.77 175.74 161.88 175.74 165.91 175.15C169.72 174.59 173.92 173.64 176.56 170.95C179.27 168.19 180.1 163.99 180.4 160.25C180.41 145.61 179.84 139.93 179.85 132.51C179.86 117.96 184.84 110.09 174.07 94.42V94.44Z" fill="#98D5FB"/>
</g>
<g style="mix-blend-mode:multiply" opacity="0.5">
<path d="M111.67 176.56C134.47 176.02 153.56 176.3 162.19 175.55C169.9 174.88 177.84 172.51 179.69 160.17C178.65 158.68 177.41 157.12 175.91 155.44C169.52 148.33 167.52 139.71 158.41 134.9C148.21 129.51 134.69 132.18 123.28 132.74C116.6 133.07 91.74 132.28 91.74 132.28C91.74 132.28 79.68 130.4 74.47 138.87C69.23 147.39 59.62 157.2 56.99 161.07C56.18 162.26 55.43 163.65 54.79 165.16C55.38 167.4 56.31 169.29 57.75 170.49C63.67 175.4 88.85 177.09 111.66 176.55L111.67 176.56Z" fill="#98D5FB"/>
</g>
<g style="mix-blend-mode:screen" opacity="0.52">
<path d="M55.5498 166.38C55.7298 167.3 55.9998 168.2 56.4098 169.07C58.5298 173.53 63.6898 175.05 68.5198 175.75C71.2998 176.15 74.1198 176.15 76.9198 176.24C79.9298 176.35 82.9298 176.6 85.9298 176.85C91.9198 177.37 97.8698 177.73 103.89 177.65C116.18 177.48 128.4 176.3 140.7 176.45C146.59 176.52 152.5 176.61 158.37 176.12C161.24 175.88 164.07 175.47 166.87 174.88C168.91 174.45 171.02 174.02 172.88 173.11C175.65 171.76 177.55 169.57 178.87 167.05C179.42 165.12 179.79 163.12 180.11 161.13C180.14 160.49 180.15 159.83 180.16 159.15C180.28 148.54 180.14 141.71 179.98 136.4C178.29 139.52 176.43 142.39 174.6 144.13C168.75 149.66 175.61 120.4 171.25 124.03C166.89 127.66 135.11 169.18 125.11 166.38C115.13 163.58 144.84 140.92 143.28 133.13C141.73 125.39 78.5998 172.46 75.6398 170.12C72.6798 167.78 67.1698 168.25 59.1698 168.72C57.5498 168.81 56.3798 167.89 55.5498 166.37V166.38Z" fill="#98D5FB"/>
</g>
<g style="mix-blend-mode:multiply" opacity="0.5">
<path d="M175.84 107.59C173.547 106.99 168.987 107.44 162.16 108.94C151.91 111.19 141.14 112.54 123.48 108.49C105.87 104.45 85.2899 109.39 74.5299 108.49C63.7799 107.59 70.0999 109.84 64.2299 109.39C58.3599 108.94 56.3999 108.94 52.9799 108.94C52.8299 108.94 52.6899 108.99 52.5599 109.07C52.2499 111.39 52.1899 113.74 52.5099 115.98C53.2899 121.47 53.5199 139.78 53.7799 149.08C54.4199 136.79 55.8699 121.47 59.1199 120.66C64.5499 119.3 64.1099 116.59 70.9699 117.04C77.8399 117.49 82.2599 117.49 84.7099 117.49C87.1599 117.49 77.5799 136.59 83.5399 133.84C89.4899 131.1 102.39 115.68 104.35 116.58C106.31 117.48 100.39 122.01 104.82 120.65C109.25 119.29 115.64 113.42 122.99 114.33C130.35 115.23 142.66 119.75 151.47 117.04C160.27 114.33 162.66 110.73 163.19 113.43C163.72 116.13 153.59 129.74 155.54 128.37C157.49 127.01 166.15 114.78 168.13 115.68C170.11 116.58 172.05 115.23 176.03 117.94C178.21 119.42 178.66 115.52 178.62 111.67C177.83 109.54 176.94 107.87 175.82 107.58L175.84 107.59Z" fill="#98D5FB"/>
</g>
<g style="mix-blend-mode:screen">
<path d="M61.3699 105.8C58.7999 106.32 58.1799 104.79 56.3299 103.83C55.0599 103.17 52.2799 102.79 51.9499 101.39C51.7399 100.5 52.0499 99.58 52.3499 98.7C52.7899 97.43 53.2299 96.17 53.6599 94.9C51.4299 95.86 49.9399 97.82 48.5599 99.7C45.5499 103.78 46.5699 111.96 47.0799 116.63C47.1599 117.36 47.2599 118.1 47.3799 118.85C49.5199 132.48 49.5699 108.94 52.9999 108.94C56.4299 108.94 58.3899 108.94 64.2499 109.39C70.1199 109.84 63.7899 107.59 74.5499 108.49C85.3099 109.39 105.89 104.45 123.5 108.49C141.16 112.54 151.92 111.19 162.18 108.94C169.007 107.447 173.567 106.997 175.86 107.59C179.3 108.49 180.59 122.47 183.55 122.93C186.51 123.38 184.22 109.39 184.1 104.01C183.98 98.63 175.73 88.42 175.73 88.42C175.73 88.42 183.03 99.99 179.14 100.88C175.25 101.77 177.1 96.87 170.34 99.99C163.56 103.12 144.55 108.05 140.62 106.25C136.69 104.46 140.07 99.1 137.64 99.54C135.2 99.99 133.27 103.11 126.92 103.56C120.57 104.01 117.64 104.46 109.82 103.11C102.01 101.77 79.0299 104 73.1599 104.45C67.2899 104.9 65.8199 104.9 61.3999 105.79L61.3699 105.8Z" fill="#98D5FB"/>
</g>
<g style="mix-blend-mode:screen">
<path d="M133.8 121.67C120.26 129.18 107.51 137.48 94.45 145.81C88.96 149.31 82.95 152.6 78.51 157.15C76.13 159.59 74.42 162.5 72.19 164.9C71.92 165.3 71.63 165.67 71.35 166.07C70.6 167.13 70.16 167.98 69.77 169.06C69.67 169.34 69.58 169.63 69.49 169.92C69.47 170 69.33 170.57 69.32 170.6C69.27 170.92 69.24 171.24 69.24 171.56C69.24 171.69 69.24 171.82 69.25 171.95C69.25 171.99 69.27 172.05 69.29 172.16C69.49 172.92 69.75 173.51 70.09 174.14C70.21 174.23 70.36 174.33 70.4 174.36C70.61 174.48 70.83 174.58 71.06 174.68C71.14 174.7 71.6 174.85 71.66 174.87C72.3 175.04 72.64 175.1 73.17 175.11C73.49 175.11 73.82 175.11 74.14 175.08C74.17 175.06 74.75 174.97 74.83 174.95C75.12 174.88 75.4 174.8 75.68 174.7C75.8 174.66 75.92 174.62 76.04 174.57C75.85 174.64 75.9 174.61 76.17 174.5C77.32 173.92 78.39 173.31 79.25 172.59C80.32 171.7 80.75 170.94 81.6 169.76C81.72 169.59 81.87 169.44 82.03 169.3C82.49 168.62 82.93 167.92 83.34 167.18C86.59 161.35 91.15 156.52 96.47 152.02C108.67 141.68 121.94 132.23 134.96 122.95C135.8 122.35 134.69 121.16 133.78 121.66L133.8 121.67Z" fill="#98D5FB"/>
</g>
<g style="mix-blend-mode:screen">
<path d="M98.8198 162.97C95.2198 164.31 92.3998 167.07 89.4298 169.43C89.2198 169.77 88.9398 170.07 88.5598 170.25C88.4598 170.3 88.3598 170.35 88.2598 170.41C88.2498 170.41 88.2298 170.43 88.2098 170.44C88.1198 170.51 87.9998 170.61 87.9598 170.64C87.6398 170.92 87.3398 171.23 87.0598 171.55C87.0198 171.59 86.9798 171.64 86.9398 171.69C86.8498 171.81 86.7498 171.92 86.6598 172.04C86.4298 172.33 86.1998 172.63 85.9898 172.94C85.8698 173.12 85.7498 173.3 85.6398 173.48C85.5998 173.54 85.4998 173.8 85.4298 173.88C85.4098 173.93 85.3898 173.98 85.3698 174.03C85.3598 174.06 85.3398 174.14 85.3198 174.22C85.3198 174.3 85.3198 174.41 85.3198 174.48C85.3198 174.48 85.3198 174.49 85.3198 174.5C85.3398 174.53 85.3598 174.56 85.3898 174.61C85.4098 174.61 85.4298 174.63 85.4398 174.63C85.5298 174.65 85.6198 174.67 85.6998 174.69C85.9198 174.7 86.1498 174.71 86.3698 174.69C86.5098 174.69 86.6498 174.67 86.7798 174.66C86.9798 174.63 87.1798 174.6 87.3798 174.56C87.8498 174.47 88.3198 174.35 88.7798 174.22C88.8798 174.19 89.4998 173.99 89.7098 173.93C89.7598 173.91 89.7998 173.89 89.8498 173.87C90.0298 173.79 90.1998 173.7 90.3698 173.6C91.0598 173.22 91.7198 172.79 92.4098 172.4C92.4998 172.35 92.5998 172.31 92.6898 172.28C95.9598 169.99 99.0998 167.29 100.52 164.1C100.93 163.18 99.6298 162.66 98.8098 162.97H98.8198Z" fill="#98D5FB"/>
</g>
<g style="mix-blend-mode:screen">
<path d="M155.11 118.94C146.45 122.1 139.4 129.59 133.03 135.3C129.68 138.3 126.29 141.28 122.83 144.22C119.4 147.13 115.07 149.81 112.35 153.24C111.75 153.99 112.74 155.01 113.72 154.76C122.29 152.56 129.43 144.44 135.22 139.09C138.52 136.04 141.79 132.99 145.22 130.08C148.97 126.9 153.35 124.13 156.88 120.83C158.02 119.76 156.56 118.41 155.12 118.94H155.11Z" fill="#98D5FB"/>
</g>
<g style="mix-blend-mode:screen" opacity="0.52">
<path d="M57.88 174.04C59.6 176 62.95 177.4 65.54 176.67C66.69 176.35 67.62 175.52 67.95 174.46C68.43 172.9 67.34 170.91 67.02 169.33C66.6 167.25 66.63 165.13 66.6 163.02C66.6 162.93 66.6 162.84 66.6 162.76C65.98 154.53 66.76 145.96 63.23 138.5C62.74 137.47 60.78 137.45 60.27 138.5C57.24 144.7 57.11 152.38 56.48 159.11C56.31 160.91 56.14 162.73 56.03 164.57C55.92 167.74 55.67 171.53 57.88 174.04Z" fill="#98D5FB"/>
</g>
<g style="mix-blend-mode:screen" opacity="0.52">
<path d="M93.0099 174.83C94.9699 175.26 96.9299 175.42 98.9799 175.51C100.88 175.59 103.01 175.7 104.66 174.94C105.9 174.37 106.1 173.02 104.66 172.48C103.02 171.86 101.21 171.97 99.3799 171.94C97.4599 171.91 95.5499 171.78 93.6299 171.77C91.0399 171.76 90.6199 174.3 93.0099 174.82V174.83Z" fill="#98D5FB"/>
</g>
<g style="mix-blend-mode:screen" opacity="0.52">
<path d="M121.57 175.81C126.09 176.98 131.55 176.62 136.32 176.69C141.15 176.76 146.04 176.61 150.81 176.08C159.41 175.13 166.67 173.35 172.83 169.06C173.47 168.62 172.8 167.66 171.85 167.93C164.15 170.13 155.39 169.88 147.16 170.12C142.83 170.25 138.52 170.58 134.23 171.04C129.85 171.51 125.01 171.68 121.06 173.15C119.33 173.79 119.97 175.4 121.57 175.81Z" fill="#98D5FB"/>
</g>
<g style="mix-blend-mode:multiply" opacity="0.57">
<g style="mix-blend-mode:multiply" opacity="0.5">
<path d="M151.06 96.1201C144.31 91.6301 114.15 96.1201 110.15 94.6301C106.12 93.1301 116.15 88.5901 111.6 87.8201C107.03 87.0501 97.36 85.9001 87.14 84.7401C79.56 83.8801 79.91 76.3501 82.21 70.9301C80.99 71.1301 79.78 71.4 78.63 71.84C75.9 72.88 73.63 74.8601 71.69 76.9901C70.67 78.1101 69.73 79.3 68.83 80.5201C68.49 81.1101 68.13 81.6901 67.71 82.2401C67.61 82.3801 67.49 82.49 67.36 82.59C65.07 85.93 62.99 89.4401 60.5 92.6301C60.46 92.68 60.41 92.7101 60.37 92.7601C59.59 94.0101 58.83 95.2601 58.1 96.5401C57.05 98.3801 56.21 100.32 55.2 102.18C54.97 102.61 54.7 103.03 54.48 103.47C55.9 103.65 57.11 104.22 58.17 105.31C58.27 105.41 58.36 105.52 58.45 105.63C59.2 105.98 60.03 106.18 61.29 105.97C65.63 105.25 67.1 105.25 72.96 104.89C78.82 104.53 101.86 102.72 109.76 103.81C117.62 104.89 120.57 104.53 126.96 104.17C133.36 103.81 135.42 101.27 137.9 100.9C140.39 100.53 136.76 104.89 140.62 106.32C144.46 107.75 163.85 103.8 170.99 101.26C171.1 101.22 171.2 101.19 171.31 101.16C164.35 100.31 155.01 98.7301 151.07 96.1101L151.06 96.1201Z" fill="#98D5FB"/>
</g>
</g>
<g style="mix-blend-mode:screen">
<path d="M54.29 154.74C52.93 158.33 54.67 162.38 56.5 165.51C58.27 168.54 61.22 173.2 65.54 172.8C67.46 172.62 68.45 171.32 68.22 169.58C67.8 166.45 64.03 163.89 62.35 161.25C60.69 158.64 59.04 155.52 56.02 154.1C55.33 153.77 54.56 154.05 54.29 154.75V154.74Z" fill="#98D5FB"/>
</g>
<g style="mix-blend-mode:screen">
<path d="M79.0998 173.29C79.2298 173.66 79.3699 173.93 79.6099 174.23C79.8699 174.55 80.1799 174.78 80.5799 174.94C80.6999 174.99 80.8199 175.04 80.9399 175.08C81.1199 175.14 81.0398 175.11 80.7099 174.99C80.8099 175.11 81.0898 175.2 81.2398 175.28C81.6898 175.53 80.6098 174.82 81.3498 175.36C81.6398 175.57 81.9499 175.69 82.2999 175.81C84.0199 176.41 85.7099 174.6 85.2599 173.07C84.8999 171.87 83.7398 171.07 82.5198 170.72C81.7498 170.5 80.9498 170.53 80.2398 170.93C79.4298 171.39 78.7798 172.4 79.0998 173.3V173.29Z" fill="#98D5FB"/>
</g>
<g style="mix-blend-mode:screen">
<path d="M127.75 174.47C133.35 175.25 140.62 174.71 145.87 173.32C146.56 173.14 146.68 172.41 145.86 172.26C142.76 171.7 140.13 171.58 136.89 171.72C133.89 171.85 130.61 171.83 127.74 172.47C126.43 172.76 126.21 174.25 127.74 174.47H127.75Z" fill="#98D5FB"/>
</g>
<g style="mix-blend-mode:screen" opacity="0.52">
<path d="M60.61 116.94C64.81 118.24 69.7 118.22 74.13 118.33C76.62 118.39 79.1 118.37 81.59 118.36C84.74 118.36 84.2 118.1 83.93 120.74C83.78 122.24 85.49 123.84 87.1 122.72C90.43 120.4 91.29 114.54 86.37 113.51C82.87 112.77 78.42 113.67 74.81 113.68C70.24 113.68 65.44 113.13 60.92 113.77C58.91 114.06 58.74 116.37 60.61 116.95V116.94Z" fill="#98D5FB"/>
</g>
<g style="mix-blend-mode:screen" opacity="0.52">
<path d="M96.9099 117.35C102.27 116.37 108.28 117.47 113.74 117.73C118.01 117.93 123.24 118.66 127.08 116.74C128.02 116.27 127.65 115.14 126.93 114.7C122.76 112.16 115.53 112.8 110.67 112.65C105.59 112.5 99.8399 111.79 95.4299 114.57C93.7199 115.65 95.1199 117.68 96.9099 117.35Z" fill="#98D5FB"/>
</g>
<g style="mix-blend-mode:multiply" opacity="0.5">
<path d="M214.43 183.56C214.22 182.43 213.75 181.52 213.03 180.79C212 179.77 209.88 179.29 208.35 178.51C206.78 177.71 205.48 176.48 204.74 174.88C204.09 173.47 203.86 172.17 202.38 171.43C200.87 170.68 199.08 170.82 197.6 169.93C195.48 168.66 195.02 166.35 195.97 164.19C196.62 162.73 197.47 161.25 196.81 159.61C195.72 156.88 191.84 155.63 189.3 156.85C188.59 157.19 188.03 157.65 187.54 158.17C188.3 164.88 187.89 174.15 183.46 178.41C181.96 179.85 180.13 180.85 178.12 181.53C177.25 181.97 176.34 182.36 175.4 182.67C167.08 185.45 157.19 185.59 148.54 185.65C130.63 185.77 112.73 185.48 94.84 185.35C94.51 185.36 94.18 185.37 93.85 185.39C87.35 185.74 80.85 185.66 74.35 185.93C68.72 186.16 62.71 186.76 57.25 185.02C52.3 183.44 48.25 180.14 47.08 174.91C46.51 172.34 46.62 169.75 46.64 167.14C46.66 164.69 46.69 162.24 46.95 159.81C44.52 157.16 40.8 156.09 37.26 156.93C37.18 156.95 37.1 156.98 37.02 157C35.33 157.79 33.78 158.88 32.69 160.32C31.77 161.55 31.36 163.03 31.75 164.54C32.22 166.33 33.5 167.22 34.98 168.17C36.18 168.94 37.41 169.76 38.18 170.99C39.04 172.38 39.13 174.16 38.77 175.73C38.41 177.28 37.52 178.74 36.27 179.73C34.87 180.84 33.19 181.03 31.48 181.31C29.67 181.6 27.78 181.85 26.12 182.67C24.48 183.49 22.69 185.03 22.24 186.88C21.25 191 27.72 192.56 30.54 192.98C32.65 193.29 34.79 193.42 36.89 193.81C39.07 194.22 41.29 195.22 43.54 194.87C45.3 194.6 46.91 193.81 48.63 193.44C48.67 193.42 48.71 193.4 48.75 193.38C48.96 193.27 49.17 193.17 49.38 193.07C49.4 193.07 49.44 193.04 49.5 193.02C49.62 192.97 49.8 192.91 49.85 192.89C50.06 192.81 50.27 192.74 50.49 192.68C50.76 192.6 51.38 192.51 51.15 192.51C51.28 192.51 51.41 192.51 51.54 192.49C51.56 192.49 51.59 192.49 51.61 192.49C51.61 192.49 51.61 192.49 51.63 192.49C51.82 192.61 52.51 192.86 52.23 192.69C52.53 192.86 52.83 193.02 53.13 193.2C53.14 193.2 53.16 193.22 53.19 193.24C53.29 193.32 53.45 193.45 53.49 193.49C53.79 193.75 54.09 194.02 54.39 194.28C54.55 194.36 54.71 194.42 54.87 194.51C56.6 195.44 58.16 196.66 59.94 197.51C61.67 198.33 63.56 198.78 65.47 198.89C66.27 198.94 67.09 198.91 67.92 198.87C71.89 197.84 75.23 195.47 78.9 193.63C78.94 193.61 79.22 193.48 79.37 193.41C79.52 193.35 79.8 193.23 79.84 193.21C80.28 193.04 80.73 192.88 81.19 192.75C81.45 192.68 81.72 192.61 81.98 192.55C81.79 192.59 81.25 192.6 82.18 192.53C82.79 192.48 83.39 192.49 84 192.5C84.03 192.5 84.32 192.52 84.43 192.52C84.68 192.55 84.94 192.59 85.19 192.63C85.72 192.71 86.25 192.81 86.78 192.9C88.1 193.14 89.42 193.36 90.76 193.51C95.61 194.04 100.32 192.53 105.18 192.76C105.33 192.76 105.48 192.78 105.63 192.79C105.73 192.8 105.96 192.82 106 192.83C106.55 192.92 107.09 193.02 107.63 193.15C108.56 193.37 109.59 193.69 110.33 194C112.13 194.75 113.37 196.47 115.18 197.31C118.03 198.63 121.33 197.99 123.72 196.03C124.82 195.13 125.64 194.02 126.46 192.87C127.2 191.83 127.46 191.4 128.31 190.48C129.45 189.25 131.18 189.2 133.18 189.19C133.52 189.19 133.86 189.19 134.21 189.22C135.92 189.6 137.64 189.95 139.38 190.18C141.04 190.4 142.89 190.45 144.41 191.2C144.75 191.37 145.06 191.58 145.36 191.81C146.22 192.17 147.02 192.62 147.89 192.97C150.06 193.84 152.36 193.61 154.61 193.98C155.68 194.16 156.63 194.56 157.37 195.22C157.46 195.25 157.55 195.28 157.6 195.3C157.62 195.38 157.65 195.45 157.67 195.52C157.92 195.79 158.12 196.1 158.31 196.44C158.79 196.91 159.19 197.46 159.57 198.02C161.19 199.15 163.76 200 165.49 198.6C166.42 197.84 166.62 196.6 167.06 195.54C167.13 194.54 167.78 193.76 168.71 193.41C168.97 193.24 169.24 193.09 169.55 193C170.8 192.61 172.06 192.92 173.23 193.51C173.91 193.61 174.6 193.69 175.28 193.68C176.48 193.67 177.69 193.47 178.77 192.9C179.22 192.66 179.62 192.35 180 192.01C180.23 191.79 180.47 191.57 180.71 191.37C180.95 191.15 181.18 190.93 181.43 190.73C182.23 190.06 183.14 189.45 184.16 189.2C184.51 189.12 184.86 189.08 185.21 189.07C185.85 188.92 186.49 188.81 187.16 188.79C187.21 188.78 187.25 188.76 187.3 188.75C188.02 188.61 189.04 188.72 190.04 188.88C191.7 188.98 193.37 189.05 194.95 188.61C196.65 188.14 198.1 187.03 199.63 186.2C201.37 185.26 203.28 184.51 205.3 184.62C207.28 184.73 209.09 185.47 211 185.9C211.73 186.06 212.49 186.14 213.21 185.97C213.69 185.86 213.87 185.76 214.11 185.45C214.35 185.15 214.53 184.29 214.4 183.6L214.43 183.56Z" fill="#98D5FB"/>
</g>
<g style="mix-blend-mode:multiply" opacity="0.5">
<path d="M197.67 174.47C197.67 174.47 197.74 174.45 197.79 174.44C197.78 174.44 197.76 174.46 197.74 174.46C197.72 174.46 197.69 174.46 197.67 174.46V174.47Z" fill="#98D5FB"/>
</g>
<g style="mix-blend-mode:multiply" opacity="0.5">
<path d="M50.44 169.78C50.42 169.76 50.42 169.76 50.44 169.78V169.78Z" fill="#98D5FB"/>
</g>
<g style="mix-blend-mode:multiply" opacity="0.5">
<path d="M50.59 170.03C50.59 170.03 50.56 169.97 50.54 169.95C50.54 169.95 50.55 169.95 50.56 169.95C50.57 169.98 50.58 169.99 50.6 170.03H50.59Z" fill="#98D5FB"/>
</g>
<g style="mix-blend-mode:multiply" opacity="0.5">
<path d="M50.7 170C50.75 170.04 50.78 170.07 50.84 170.12C50.79 170.08 50.74 170.04 50.7 170Z" fill="#98D5FB"/>
</g>
<g style="mix-blend-mode:multiply" opacity="0.5">
<path d="M50.56 169.95C50.56 169.95 50.54 169.95 50.55 169.95C50.52 169.91 50.49 169.87 50.46 169.8C50.48 169.82 50.51 169.86 50.54 169.89C50.54 169.91 50.56 169.93 50.57 169.95H50.56Z" fill="#98D5FB"/>
</g>
<g style="mix-blend-mode:multiply" opacity="0.5">
<path d="M51.02 170.12C50.96 170.14 50.86 170.09 50.76 170.02C50.83 170.05 50.91 170.07 51.02 170.12Z" fill="#98D5FB"/>
</g>
<g style="mix-blend-mode:multiply" opacity="0.5">
<path d="M50.6901 169.99C50.6601 169.96 50.6301 169.94 50.6001 169.91C50.6201 169.93 50.6701 169.97 50.7001 169.99H50.6901Z" fill="#98D5FB"/>
</g>
<g style="mix-blend-mode:multiply" opacity="0.5">
<path d="M50.4999 169.84C50.4699 169.82 50.4599 169.8 50.4399 169.79C50.4499 169.79 50.4799 169.82 50.4999 169.84Z" fill="#98D5FB"/>
</g>
<g style="mix-blend-mode:multiply" opacity="0.5">
<path d="M39.6699 162.43C39.6699 162.43 39.6399 162.4 39.6299 162.39C39.6399 162.4 39.6599 162.42 39.6699 162.43Z" fill="#98D5FB"/>
</g>
<path d="M34.6599 53.26C34.7899 53.45 34.8499 53.53 34.8499 53.53C34.7899 53.45 34.7399 53.37 34.6799 53.29C34.6799 53.29 34.6599 53.27 34.6599 53.26Z" fill="#D7F5FF"/>
<path d="M33.9299 86.0601C33.9299 86.0601 33.9899 86.1801 34.0699 86.3301C34.0699 86.3301 34.0699 86.3201 34.0699 86.3101C34.0199 86.2301 33.9799 86.1401 33.9299 86.0601Z" fill="#D7F5FF"/>
<path d="M200.15 114.13C200.05 112.21 199.06 110.39 198.28 108.68C197.41 106.78 196.43 104.93 195.35 103.13C194.14 101.12 192.69 99.31 191.32 97.45C190.94 96.55 190.47 95.68 189.92 94.85C189.45 93.88 188.96 92.92 188.45 91.97C187.94 91.04 187.42 90.12 186.93 89.19C186.51 88.4 186.18 87.65 186.55 86.77C187.28 85.03 189.89 83.82 191.44 82.94C193.01 82.05 194.66 81.25 196.06 80.09C197.27 79.08 198.2 77.74 198.34 76.15C198.51 74.23 197.93 72.34 197.23 70.58C196.54 68.83 195.57 67.21 194.48 65.66C194.24 65 193.92 64.36 193.5 63.76C193.37 63.57 193.21 63.4 193.06 63.22C193.06 63.2 193.06 63.18 193.05 63.17C192.61 62.33 191.84 61.67 191.19 60.99C190.46 60.23 189.86 59.37 189.3 58.49C187.82 56.16 188.64 54.1 189.82 51.9C190.88 49.94 192 48.02 193.19 46.14C194.29 44.42 195.53 42.77 196.24 40.84C198.45 34.85 196.73 28.75 193.45 23.62C192.4 21.2 190.76 18.9 188.39 16.85C178.2 8.00004 162.37 13.23 156.77 24.65C155.69 26.85 155 29.18 154.64 31.58C151.33 30.37 147.74 29.61 144.2 29.45C143.97 28.91 143.68 28.4 143.56 27.8C143.38 26.95 143.4 26.08 143.44 25.22C143.52 23.48 143.66 21.77 143.38 20.03C143.04 17.94 142.11 16.06 140.69 14.6C140.33 14.14 139.91 13.71 139.44 13.33C135.93 10.54 130.93 10.82 126.95 12.46C123.17 14.01 120.14 16.49 117.86 19.88C115.3 23.68 114.58 28.24 115.11 32.69C114.49 32.27 113.83 31.89 113.26 31.38C112.37 30.58 111.55 29.71 110.86 28.72C109.38 26.59 108.14 24.12 107.13 21.74C105.69 18.33 104.67 14.68 102.69 11.59C100.54 7.96004 97.48 4.91004 93.66 2.87004C90.43 1.15004 86.92 0.230039 83.27 0.0300386C79.42 -0.179961 74.74 0.800038 72.67 4.43004C70.21 8.74004 72.87 12.93 76.43 15.46C75.53 15.82 74.65 16.22 73.8 16.68C73.49 16.49 73.18 16.31 72.86 16.14C68.14 13.59 62.45 13.36 57.37 15C54.52 15.92 52.01 17.53 50.35 20.05C48.65 22.62 48.41 25.73 48.96 28.69C49.22 30.07 49.76 31.36 50.47 32.57C47.71 29.89 44.33 27.86 40.5 26.87C35.79 25.65 30.78 26 26.09 27.16C23.76 27.73 21.27 28.51 19.35 30C17.64 31.33 16.27 33.08 15.63 35.11C15.5 35.27 15.37 35.42 15.24 35.58C14.05 37.16 13.23 39.03 12.93 41C12.32 44.89 14.24 47.93 17.25 50.19C19.28 51.71 22.25 52.97 23.86 55.11C23.34 54.94 22.81 54.8 22.26 54.69C18.69 53.99 14.62 54.05 11.13 55.39C10.6 55.56 10.06 55.77 9.52999 56.04C8.11999 56.73 7.06999 57.62 6.32999 58.62C5.77999 59.22 5.31999 59.86 4.91999 60.54C4.23999 61.2 3.63999 61.93 3.16999 62.82C2.11999 64.78 1.57999 66.85 1.29999 69.02C0.38999 71.78 0.0499896 74.78 -1.03561e-05 77.82C-0.0700104 82.72 0.85999 88.22 3.33999 92.51C4.44999 94.42 6.12999 96.54 8.10999 97.6C10.23 98.74 12.72 98.29 14.7 97.06C16.76 95.78 18.37 93.95 20.27 92.47C22.31 90.87 24.84 90.12 27.41 90.07C28.33 90.05 29.65 90.16 30.38 90.7C29.24 92.23 28.38 94.03 28.12 95.86C28.05 96.34 28.02 96.82 28.01 97.3C27.5 99.65 27.49 102.12 27.8 104.65C28.36 109.22 29.8 113.78 31.96 117.84C33.99 121.67 36.93 124.63 39.61 127.98C40.89 129.58 41.98 131.14 42.54 133.14C43.18 135.42 43.44 137.71 43.72 140.05C44.05 142.79 44.33 145.55 44.71 148.28C44.89 149.61 45.23 150.86 45.64 152.13C46.1 153.54 46.31 155.05 46.71 156.48C46.78 156.75 47.17 156.62 47.12 156.36C46.88 155.08 46.57 153.77 46.48 152.47C46.4 151.23 46.49 149.96 46.43 148.71C46.3 146.23 46.18 143.75 46.51 141.28C46.82 138.93 46.79 136.51 46.03 134.25C45.94 133.99 45.84 133.74 45.73 133.5C46.22 129.66 46.41 125.51 46.05 121.46C47.09 117.71 46.82 113.98 46.29 110.14C45.54 104.77 47 102.42 50.83 98.7C51.97 97.59 53.2 96.56 54.46 95.58C56.75 95.05 59.02 94.33 61.25 93.66C65.9 92.27 70.64 91.05 75.09 89.08C77.95 87.81 79.76 85.97 80.61 83.87C81.42 83.11 81.82 81.92 81.55 80.68C80.95 77.95 82.27 74.8 85.05 73.84C84.81 73.98 84.76 74.22 85.67 74.07C87.54 73.77 89.38 73.64 91.26 73.29C91.59 73.23 91.91 73.16 92.24 73.09C93.47 74.56 94.9 75.89 96.49 77.06C100.38 79.95 106.6 82.85 108.77 87.44C110.3 90.68 107.62 93.19 104.08 94.98C101.23 95.67 98.57 96.9 95.72 97.61C88.79 99.34 81.79 100.72 74.64 101.11C74.56 101.11 74.57 101.22 74.64 101.23C81.03 101.5 87.43 101.13 93.8 100.74C95.39 100.64 96.98 100.53 98.58 100.51C100.18 100.49 101.77 100.76 103.37 100.71C106.56 100.61 109.75 100.32 112.94 100.12C115.84 99.94 119.07 100.28 121.88 99.42C125.42 98.34 127.54 94.72 126.43 91.11C125.42 87.81 122.64 86.12 119.66 84.87C119.39 84.76 119.14 84.63 118.88 84.51C120.22 81.53 123.3 79.63 125.65 77.38C127.71 75.41 129.65 73.3 131.16 70.98C131.5 71.11 131.83 71.25 132.17 71.38C132.5 71.51 132.83 71.64 133.16 71.76C133.25 71.79 133.34 71.83 133.43 71.87C133.46 71.88 133.47 71.89 133.51 71.9C134.69 72.43 135.9 72.88 136.99 73.57C137.03 73.63 137.5 74 137.56 74.06C137.79 74.28 138.01 74.51 138.22 74.75C138.24 74.77 138.25 74.78 138.27 74.79C138.29 74.83 138.32 74.89 138.37 74.98C138.37 75 138.74 75.7 138.72 75.59C138.96 76.16 139.12 76.67 139.22 77.16C136.35 79.87 134.82 83.43 136.76 88C139.88 95.35 148.6 97.27 155.74 98.06C161.56 98.71 167.28 98.25 173.1 98.48C178.33 98.69 182.71 100.11 184.4 105.46C186.15 110.99 185.38 117.66 185.86 123.41C186.2 127.4 186.4 131.36 186.52 135.33C185.86 137.84 186.36 140.42 186.62 142.95C186.89 145.6 187.24 148.18 187.8 150.78C187.81 150.85 187.91 150.82 187.91 150.76C187.99 148.31 187.91 145.85 188.05 143.4C188.19 141.01 188.95 138.8 189.32 136.45C189.66 134.3 189.84 132.16 190.79 130.17C191.78 128.1 193.28 126.45 194.79 124.76C197.27 122 200.37 118.11 200.17 114.15L200.15 114.13ZM32.07 84.37C32.07 84.37 31.85 84.29 31.7 84.22C31.91 84.28 32.07 84.34 32.07 84.37ZM27.8 83.41C27.58 83.38 27.44 83.37 27.35 83.36C27.5 83.36 27.7 83.36 27.8 83.41ZM28.48 56.93C26.73 53.95 24.44 51.7 21.59 49.79C18.9 47.98 16.24 46.25 16.23 42.64C16.23 42.32 16.25 42.01 16.28 41.71C17.88 44.67 21.09 46.66 24.22 48C25.87 49.8 27.45 51.68 28.73 53.75C29.91 55.65 30.77 57.03 31.27 58.96C31.34 59.23 31.39 59.44 31.43 59.65C30.59 58.96 29.74 58.3 28.87 57.69C28.74 57.44 28.61 57.18 28.47 56.93H28.48ZM26.69 86.94C24.41 87.74 22.38 88.97 20.4 90.34C18.52 91.64 16.95 93.35 15.06 94.64C14.06 95.32 12.69 96.03 11.45 95.9C10.23 95.77 9.40999 94.78 8.80999 93.8C7.66999 91.93 6.90999 89.73 6.21999 87.65C5.92999 86.78 5.68999 85.9 5.47999 85.01C6.94999 86.38 8.80999 87.27 10.91 87.08C12.23 86.96 13.44 86.43 14.53 85.69C15.27 85.19 16.01 84.57 16.6 84.39C18.99 83.67 21.12 83.36 23.46 83.09C23.6 83.07 23.75 83.06 23.89 83.05C24.55 83.12 25.21 83.18 25.88 83.24C26.33 83.28 26.78 83.32 27.23 83.36C27.26 83.36 27.3 83.36 27.35 83.36C27.38 83.36 27.4 83.36 27.46 83.37C27.65 83.39 27.84 83.42 28.04 83.44C28.92 83.56 29.8 83.71 30.66 83.93C30.72 83.95 31.26 84.08 31.66 84.2C31.68 84.21 31.7 84.23 31.75 84.25C32.02 84.4 32.3 84.51 32.57 84.66C32.62 84.69 32.79 84.77 32.94 84.86C32.98 84.9 33 84.92 33.05 84.97C33.19 85.1 33.33 85.23 33.47 85.36C33.53 85.42 33.65 85.58 33.74 85.7C33.8 85.81 33.87 85.91 33.89 85.95C33.91 85.98 33.93 86.02 33.95 86.05C33.92 85.98 34.02 86.13 34.09 86.3C34.12 86.36 34.15 86.42 34.19 86.48C34.15 86.42 34.13 86.37 34.1 86.32C34.11 86.35 34.12 86.38 34.13 86.41C34.15 86.49 34.18 86.58 34.2 86.66C34.14 86.64 34.09 86.62 34.03 86.61C31.5 85.99 29.19 86.05 26.71 86.93L26.69 86.94ZM42.76 129.5C40.24 126.51 37.25 123.87 35.2 120.51C33.99 118.52 33.39 116.06 32.87 113.8C32.49 112.17 32.14 110.54 31.79 108.9C33.78 112.04 36.52 114.84 38.64 117.77C41.9 122.27 43.96 127.02 45.1 132.42C44.42 131.38 43.57 130.47 42.76 129.5ZM57.55 79C57.48 78.84 57.41 78.68 57.33 78.52C57.56 78.69 57.63 78.85 57.55 79ZM80.47 9.89004C79.98 10.33 80.2 10.09 80.47 9.89004V9.89004ZM80.59 9.79004C80.59 9.79004 80.58 9.79004 80.57 9.79004C80.57 9.79004 80.58 9.79004 80.59 9.78004C80.59 9.78004 80.61 9.77004 80.62 9.76004C80.62 9.76004 80.6 9.78004 80.59 9.79004ZM80.79 9.75004C80.74 9.75004 80.68 9.77004 80.62 9.78004C80.65 9.76004 80.68 9.75004 80.7 9.73004C80.73 9.73004 80.77 9.72004 80.81 9.71004C80.81 9.71004 80.81 9.73004 80.79 9.74004V9.75004ZM113.2 43.92C113.2 43.78 113.2 43.63 113.21 43.49C113.28 43.56 113.34 43.63 113.41 43.71C113.46 43.77 113.54 43.87 113.59 43.93C113.46 43.93 113.32 43.92 113.19 43.91L113.2 43.92ZM140.78 29.47C141.14 28.2 141.56 26.95 141.94 25.69C141.96 26 141.98 26.31 142.03 26.62C142.16 27.45 142.39 28.57 142.9 29.42C142.19 29.42 141.48 29.43 140.78 29.48V29.47ZM152.7 89.01C150.88 89.49 151.83 89.99 152.7 89.01V89.01ZM173.51 33.6C173.52 33.07 173.53 33.1 173.53 33.66C173.53 33.64 173.51 33.62 173.51 33.6ZM184.14 52.62C185.47 50.8 187.27 49.12 188.42 47.66C191.63 43.57 193.94 38.78 194.67 33.96C194.84 35.19 194.94 36.42 194.91 37.66C194.85 39.95 193.9 41.82 192.75 43.74C191.61 45.64 190.52 47.57 189.51 49.54C188.64 51.25 187.53 53.12 187.33 55.06C187.2 56.28 187.33 57.61 187.75 58.82C186.91 58.16 186.12 57.45 185.46 56.58C184.86 55.78 184.32 54.98 183.79 54.2C183.94 53.68 184.06 53.15 184.14 52.62ZM180.74 83.78C180.46 82.15 180.52 81.33 181.03 80.38C185.01 79.32 189.28 78.59 192.25 75.49C193.49 74.19 194.35 72.6 194.76 70.91C194.92 71.38 195.1 71.84 195.25 72.32C195.76 73.96 196.88 76.44 195.67 77.96C194.53 79.4 192.4 80.22 190.84 81.11C189.19 82.05 187.54 83.04 186.13 84.33C184.97 85.4 183.69 86.8 183.75 88.48C183.76 88.79 183.81 89.1 183.88 89.41C182.46 87.75 181.12 86.06 180.73 83.78H180.74ZM197.16 119.64C195.96 121.63 194.34 123.26 192.76 124.95C191.6 126.2 190.47 127.58 189.48 129.05C190.56 123.61 191.67 118.18 192.47 112.67C192.9 109.7 193.1 106.66 192.84 103.74C194.88 106.72 197.48 109.5 198.72 112.88C199.59 115.26 198.38 117.61 197.16 119.64Z" fill="#D7F5FF"/>
<path d="M35.4301 72.2801C36.6701 71.5101 38.1501 71.2601 39.6001 71.4301C40.2501 71.5101 40.8901 71.6701 41.5001 71.9101C41.5101 71.7601 41.5501 71.6101 41.5401 71.4601C41.5001 68.9201 39.8101 67.4401 37.9501 66.0701C36.5801 65.0601 35.2401 64.3101 33.6101 63.7801C33.4901 63.7401 33.3701 63.7101 33.2601 63.6801C32.0201 60.8401 29.0701 58.8001 26.3001 57.6801C22.5801 56.1701 18.6101 55.5101 14.6101 56.1701C10.8301 56.8001 8.07006 59.0601 6.80006 62.6801C6.30006 64.1101 6.07006 66.1101 6.52006 67.5901C6.65006 68.0001 6.84006 68.4701 7.08006 68.9101C7.13006 68.6501 7.19006 68.3901 7.29006 68.1401C7.80006 66.8701 8.77006 65.9301 9.94006 65.2501C10.9301 64.6801 12.0701 64.1401 13.1901 63.8801C14.2901 63.6201 15.3701 63.7101 16.3201 64.1901C16.4901 64.2001 16.6701 64.2101 16.8401 64.2201C17.0601 64.2301 17.2801 64.2501 17.5001 64.2701C17.5801 64.2801 17.7601 64.3101 17.9401 64.3401C18.5501 64.4401 19.1601 64.5701 19.7601 64.7201C20.3001 64.8601 20.8301 65.0101 21.3601 65.1601C20.4901 65.7701 19.6701 66.4501 18.9001 67.1201C18.0701 67.8401 17.4301 68.6501 16.8001 69.5401C16.6501 69.7501 16.4801 69.9901 16.3101 70.2301C19.1801 68.4601 22.9401 68.2501 26.5801 69.7401C27.8301 70.2501 29.0001 70.9301 30.1401 71.6501C31.9101 71.6001 33.6401 71.8601 35.2801 72.3901C35.3401 72.3501 35.3901 72.3201 35.4501 72.2801H35.4301Z" fill="#F5FCFF"/>
<path d="M68.83 81.35C68.26 81.35 67.73 81.55 67.16 81.49C66.93 81.47 66.69 81.41 66.46 81.35C66.47 81.35 65.46 81.06 65.93 81.22C64.39 80.71 62.84 80.19 61.3 79.68C57.66 78.46 53.54 79.01 50.15 80.64C48.83 81.27 47.59 82.19 46.54 83.2C45.83 83.88 45.38 84.64 44.99 85.45C43.66 84.92 42.23 84.65 40.93 84.76C37.55 85.02 34.51 86.62 32.43 89.3C30.22 92.16 28.72 96.9 30.13 100.39C30.85 102.16 31.9 103.48 33.13 104.92C33.63 105.51 34.16 106.08 34.68 106.66C35.01 107.03 35.39 107.31 35.76 107.59C35.76 107.29 35.73 106.99 35.74 106.68C35.83 104.52 36.33 102.12 37.44 100.15C37.65 99.47 37.87 98.8 38.13 98.16C38.13 98.12 38.13 98.09 38.14 98.05C38.14 97.89 38.26 96.72 38.12 97.76C38.15 97.53 38.17 97.3 38.2 97.07C38.2 97.02 38.22 96.96 38.23 96.86C38.33 96.37 38.42 95.88 38.57 95.39C38.59 95.33 38.61 95.27 38.63 95.21C38.74 95.03 38.93 94.53 38.97 94.46C39.21 93.97 39.45 93.47 39.73 93C39.85 92.8 39.97 92.56 40.13 92.38C39.3 93.29 40.81 91.48 40.67 91.68C40.7 91.64 40.71 91.63 40.73 91.6C40.76 91.57 40.77 91.55 40.81 91.51C40.97 91.33 41.13 91.14 41.3 90.96C41.36 90.89 41.67 90.6 41.77 90.5C41.88 90.42 42.18 90.2 42.22 90.17C42.55 89.95 42.88 89.72 43.22 89.5C43.08 89.9 42.95 90.32 42.88 90.76C42.81 91.19 42.77 91.61 42.77 92.04C43.29 91.24 43.93 90.52 44.74 89.92C46.17 88.86 47.94 88.43 49.68 88.25C50.58 88.16 51.49 88.15 52.39 88.16C52.93 88.16 53.47 88.23 53.99 88.37C54.29 88.37 54.59 88.37 54.9 88.37C55.47 88.37 56.03 88.39 56.59 88.42C56.77 88.45 57.68 88.53 57.62 88.52C58.14 88.58 58.66 88.63 59.18 88.65C59.63 88.67 60.09 88.66 60.56 88.63C60.68 88.57 60.65 88.6 60.6 88.63C60.61 88.63 60.62 88.63 60.63 88.63C60.66 88.61 60.7 88.6 60.75 88.57C60.98 88.46 61.2 88.3 61.39 88.15C61.9 87.74 62.34 87.25 62.81 86.81C63.8 85.87 64.91 85.03 66.04 84.26C66.27 83.8 66.58 83.37 66.96 83.02C67.73 82.31 68.66 81.88 69.65 81.65C69.44 81.46 69.17 81.34 68.84 81.35H68.83Z" fill="#F5FCFF"/>
<path d="M75.4799 30.4399C74.8499 31.1499 75.1299 30.6799 75.4799 30.4399V30.4399Z" fill="#F5FCFF"/>
<path d="M82.73 43.9699C82.88 43.9499 82.93 43.9399 82.92 43.9399C82.86 43.9399 82.8 43.9599 82.74 43.9599L82.73 43.9699Z" fill="#F5FCFF"/>
<path d="M66.27 53.2C66.34 53.2 66.37 53.2099 66.38 53.2099C66.35 53.2099 66.32 53.21 66.29 53.2C66.29 53.2 66.27 53.2 66.26 53.2H66.27Z" fill="#F5FCFF"/>
<path d="M170.88 52.24C168.13 52.17 165.14 52.57 162.48 53.63C162.62 53.45 162.76 53.27 162.93 53.05C163.08 52.86 163.23 52.67 163.38 52.48C163.61 52.18 163.82 51.88 164.04 51.58C164.19 51.13 164.93 50.53 165.25 50.19C165.59 49.82 165.97 49.4 166.38 49.08C166.54 48.98 166.75 48.85 166.81 48.8C167.03 48.65 167.26 48.5 167.49 48.36C169.43 44.93 174.34 44.18 177.91 43.96C178.58 43.92 179.34 43.91 180.13 43.95C179.58 43.32 179.03 42.68 178.46 42.06C177.44 40.96 176.03 40.13 174.66 39.54C173.91 39.21 173.15 38.98 172.39 38.79C172.51 38.6 172.64 38.4 172.77 38.21C172.9 38.01 173.04 37.82 173.17 37.63C173.2 37.63 173.25 37.61 173.33 37.58C173.92 37.35 174.52 37.17 175.13 37C175.76 35.22 177.72 33.73 179.13 32.79C179.31 32.67 179.49 32.56 179.67 32.45C179.71 32.38 179.75 32.32 179.79 32.25C180.32 31.33 180.7 30.4 181.39 29.58C182.75 27.96 184.78 27.38 186.81 27.17C188.01 27.05 189.27 27.1 190.48 27.35C190.32 27.09 190.15 26.82 189.98 26.55C188.96 24.35 187.17 22.45 185.12 21.14C184.59 20.59 183.97 20.12 183.35 19.69C181.75 18.58 179.96 17.71 178.06 17.28C176.22 16.87 174.28 16.47 172.4 16.74C170.01 17.07 167.85 17.8 165.69 18.88C161.61 20.93 158.59 24.7 156.83 28.84C156.26 30.18 155.76 31.54 155.43 32.94C152.87 31.5 149.76 30.87 146.94 31.09C142.94 31.4 139.29 32.62 136 34.91C134.23 36.14 132.58 38 131.67 40.1C131.59 40.1 131.5 40.1 131.42 40.1C129.24 40.16 127.17 40.86 125.21 41.75C121.26 43.53 117.77 46.49 115.42 50.13C114.95 50.86 114.5 51.74 114.11 52.69C114.07 52.46 114.02 52.24 113.98 52.02C113.78 51.05 113.45 50.08 113.04 49.15C113.1 49.12 113.17 49.1 113.23 49.07C113.5 49.02 113.77 48.94 114.03 48.81C114.15 48.75 114.27 48.69 114.39 48.62C113.99 48.77 114.11 48.71 114.74 48.44C114.91 48.36 115.08 48.28 115.24 48.18C115.52 48.02 116.12 47.77 115.3 48.07C115.32 48.06 115.34 48.05 115.36 48.04C115.71 47.9 116.08 47.73 116.4 47.53C116.75 47.31 117.06 47.05 117.32 46.74C119.7 44.85 121.61 42.08 122.9 39.44C123.86 37.48 124.42 35.57 124.72 33.41C124.82 32.68 124.9 31.94 124.96 31.21C124.83 31.06 124.74 30.87 124.71 30.67C123.96 25.94 126.4 20.8 130.4 18.26C132.47 16.95 134.89 15.99 137.37 16.07C137.66 16.08 137.97 16.12 138.28 16.17C138.28 16.1 138.24 16.03 138.19 15.97C135.94 13.67 132.64 12.7 129.49 12.91C125.03 13.21 121.77 15.85 119.56 19.62C117.49 23.16 116.71 27.29 116.5 31.34C116.43 32.66 116.46 33.98 116.47 35.31C116.16 35.17 115.84 35.04 115.49 34.93C114.33 34.57 113.15 34.29 112 33.92C110.38 33.41 108.19 32.85 107.05 31.48C107.05 31.48 106.66 30.79 106.53 30.59C106.32 30.17 106.3 30.15 106.47 30.53C106.27 30.09 106.08 29.66 105.88 29.22C105.8 29.06 105.76 28.98 105.73 28.93C105.68 28.8 105.62 28.67 105.58 28.54C105.39 28.04 105.21 27.54 105.04 27.04C104.29 24.71 103.66 22.44 102.47 20.26C102.17 19.72 101.84 19.18 101.47 18.66C101.48 18.59 101.49 18.47 101.52 18.26C101.61 17.73 101.65 17.19 101.66 16.65C101.67 16.17 101.64 15.7 101.6 15.22C101.31 12.22 100.29 9.49003 98.2899 7.21003C96.8399 5.55003 94.8099 4.32003 92.8399 3.38003C88.3699 1.26003 83.3199 -0.499967 78.5899 1.85003C76.4899 2.89003 74.7699 4.88003 74.2099 7.16003C75.1999 6.44003 76.3799 5.97003 77.6399 5.85003C79.1399 5.71003 80.7599 6.09003 82.0299 6.91003C82.4599 7.19003 82.8399 7.51003 83.1999 7.86003C84.1399 8.22003 85.0699 8.65003 86.0199 9.17003C86.7799 9.58003 87.5199 10.03 88.2399 10.5C88.4999 10.67 88.7499 10.84 88.9999 11.01C89.0799 11.07 89.4299 11.34 89.5399 11.43C89.8299 11.67 90.1099 11.92 90.3799 12.19C88.4099 12.23 86.3599 12.82 84.4999 13.39C83.1799 13.79 81.9099 14.29 80.7099 14.92C82.1099 14.91 83.4899 15.34 84.7499 15.93C86.8399 16.91 89.0199 18.7 89.9999 20.9C90.5099 21.34 91.0199 21.77 91.5199 22.23C91.8899 22.57 92.2199 22.93 92.5599 23.29C92.5699 23.3 92.5799 23.31 92.5899 23.32C92.6999 23.47 92.8099 23.62 92.9199 23.77C92.9999 23.88 93.7099 24.88 94.0699 25.5C94.0699 25.51 94.1199 25.62 94.2099 25.85C92.6499 25.21 90.9999 24.81 89.3199 24.75C87.9399 24.7 86.5899 24.92 85.2999 25.33C85.2199 25.15 85.1399 24.96 85.0499 24.79C84.3399 23.47 83.2499 22.52 81.9699 21.78C80.6299 21 79.0999 20.59 77.5399 20.49C77.1299 20.16 76.6999 19.85 76.2499 19.58C74.9599 18.79 73.3999 18.16 71.8999 17.89C70.2199 17.59 68.6199 17.77 67.1099 18.26C66.3899 18.15 65.6599 18.08 64.9099 18.02C63.9999 17.94 63.2099 17.79 62.2999 17.94C61.2599 18.12 60.2499 18.51 59.3299 19.03C55.6499 21.12 53.1799 25.65 52.5699 29.73C52.3599 31.16 52.4099 32.58 52.5499 33.99C51.3299 32.98 50.0399 32.08 48.7599 31.3C45.1599 29.12 41.1799 27.93 36.9699 27.84C32.8099 27.75 28.5799 29.12 25.0799 31.32C22.7899 32.76 20.5299 35.11 19.6799 37.82C19.9299 37.53 20.1899 37.27 20.4899 37.03C23.2599 34.82 27.0499 35.4 30.1599 36.6C30.9199 36.56 31.6699 36.53 32.4299 36.55C32.7999 36.56 33.1599 36.58 33.5299 36.61C33.3799 36.61 34.5599 36.75 34.6899 36.78C35.7699 36.96 36.8099 37.2 37.8499 37.47C36.8299 37.99 35.8299 38.59 34.7399 39.1C33.7499 39.57 32.7699 40.02 31.9099 40.71C31.8999 40.72 31.8799 40.73 31.8699 40.75C33.0999 40.65 34.3499 40.78 35.5599 40.98C39.2499 41.59 42.3099 43.84 44.4299 46.82C44.6799 47.05 44.9199 47.29 45.1699 47.52C45.9599 48.24 46.7199 48.97 47.4599 49.75C47.6099 49.91 47.7499 50.07 47.8899 50.22C47.7899 50.3 47.6799 50.38 47.5799 50.46C46.2199 51.63 45.1399 53.03 44.1899 54.54C42.9399 56.52 42.0999 58.89 41.9999 61.27C42.1599 60.97 42.3399 60.67 42.5399 60.39C43.7599 58.66 45.9099 56.91 48.1599 56.82C48.1999 56.81 48.2299 56.79 48.2599 56.78C49.0899 56.53 49.8899 56.28 50.7399 56.11C50.8799 56.09 51.5499 55.98 51.5199 55.99C52.0099 55.92 52.4999 55.87 52.9899 55.8C52.5399 56.59 52.1599 57.41 51.8899 58.27C52.1899 57.85 52.5099 57.45 52.8699 57.07C54.6599 55.2 57.0099 54.18 59.5099 54.07C60.3199 53.75 61.1499 53.51 61.9699 53.37C62.1899 53.33 62.7399 53.28 63.1999 53.25C63.7999 53.21 64.4099 53.18 65.0099 53.18C65.3499 53.18 65.6899 53.2 66.0299 53.21C66.1199 53.21 66.1999 53.22 66.2699 53.23C66.2399 53.23 66.2099 53.23 66.1599 53.22C66.2099 53.22 66.2499 53.23 66.2999 53.24C66.3599 53.24 66.3999 53.25 66.3899 53.25C66.9799 53.33 67.5799 53.39 68.1599 53.5C68.5999 53.58 69.0299 53.7 69.4499 53.82C69.1299 54.22 68.8299 54.64 68.5399 55.07C67.8099 56.13 67.1299 57.25 66.5099 58.4C65.8099 58.56 65.1199 58.77 64.4799 59.05C61.4599 60.35 58.8599 62.5 56.9299 65.17C56.1099 66.3 55.2299 67.44 54.5499 68.66C54.3499 69.02 54.1899 69.39 54.0499 69.78C52.0799 70.8 50.3699 72.31 48.5599 73.59C47.9599 74.02 47.4099 74.48 46.8899 74.96C47.5299 74.64 48.1799 74.34 48.8599 74.12C51.0599 73.41 53.3199 73.49 55.5799 73.84C56.8099 74.03 58.0199 74.33 59.1899 74.75C59.3399 74.81 59.4899 74.87 59.6499 74.93C62.7999 73.42 66.4199 72.94 69.7999 73.98C70.8799 74.32 72.0199 74.85 73.0399 75.56C72.9799 75.4 72.8899 75.25 72.7299 75.12C70.5199 73.23 67.7299 71.81 65.1599 70.49C63.3499 69.56 61.5599 68.87 59.6999 68.67C59.7699 68.65 59.8399 68.61 59.9199 68.59C60.5499 68.4 61.1799 68.22 61.8199 68.06C62.1199 67.99 62.4099 67.92 62.7099 67.86C62.7999 67.84 62.8299 67.83 62.8299 67.83C62.8699 67.83 62.9299 67.83 63.0299 67.81C64.3399 67.69 65.6499 67.65 66.9599 67.6C67.5499 67.57 68.1299 67.53 68.7199 67.54C68.8999 67.58 69.4399 67.65 69.5099 67.67C69.8699 67.75 70.2299 67.85 70.5899 67.94C70.8399 68 71.0999 68.04 71.3599 68.08C73.1899 65.67 76.2499 64.5 79.3399 64.17C79.8999 64.11 80.4699 64.09 81.0399 64.08C80.8399 64.01 80.6299 63.95 80.4299 63.87C79.7199 63.58 78.9699 63.27 78.3499 62.83C77.7399 62.39 77.1699 61.83 76.6099 61.33C75.1599 60.06 73.6899 58.99 71.8699 58.47C72.2999 58.26 72.7299 58.07 73.2099 57.92C73.6799 57.77 74.1599 57.68 74.6299 57.54C74.8399 57.48 75.0599 57.42 75.2599 57.34C75.4799 57.26 76.8299 56.66 76.2899 56.88C75.9499 57.02 76.9999 56.58 76.8999 56.62C76.9999 56.58 77.0699 56.54 77.1299 56.51C77.0999 56.52 77.1499 56.51 77.2999 56.44C77.8399 56.23 78.3899 56.06 78.9499 55.89C79.9199 55.6 80.9099 55.34 81.8899 55.08C82.5099 54.91 83.0799 54.79 83.6599 54.74C82.3299 56.15 81.1099 57.69 79.8499 59.15C79.7199 59.29 79.6499 59.45 79.5899 59.62C81.0899 57.91 84.2999 57.7 86.4199 57.69C87.6999 57.69 88.9699 57.82 90.1899 58.16C90.2699 58.08 90.3499 58.01 90.4399 57.95C91.2799 57.37 92.3399 57.09 93.3399 56.94C94.5499 56.76 95.7599 56.73 96.9799 56.87C98.3399 57.04 99.8899 57.4 101.15 58.14C99.2799 55.25 96.7699 52.94 93.2899 51.92C90.4399 51.09 87.4299 51.49 85.1399 53.35C84.3299 52.87 83.4999 52.4 82.7099 51.93C81.7799 51.37 80.7499 50.93 79.6799 50.62C79.4099 49.14 78.5399 47.8 77.1399 46.77C77.0399 46.7 76.9399 46.64 76.8399 46.58C77.3599 46.22 77.8699 45.84 78.4199 45.53C79.4099 44.96 80.4499 44.58 81.5499 44.3C81.9099 44.21 82.2699 44.13 82.6399 44.05C82.6799 44.05 82.7299 44.03 82.7599 44.03C82.7599 44.03 82.7499 44.03 82.7399 44.03C82.7499 44.03 82.7599 44.03 82.7699 44.03C82.8699 44.01 82.9399 44.01 82.9499 44.01C83.7299 43.92 84.4999 43.8 85.2599 43.64C85.6999 43.56 85.7599 43.54 85.4499 43.6C84.8899 43.69 85.1999 43.64 86.3899 43.45C86.6399 43.4 86.8899 43.35 87.1299 43.3C87.1999 43.29 87.2499 43.27 87.2999 43.26C87.3499 43.26 87.4099 43.26 87.4899 43.25C87.7999 43.22 88.1199 43.2 88.4299 43.18C89.7299 43.09 90.9799 43.13 92.2799 43.2C92.5299 43.21 92.7899 43.22 93.0399 43.23C91.7099 44.05 90.6199 45.11 89.5699 46.22C89.9999 46.14 90.4299 46.08 90.8599 46.06C92.7999 45.94 94.7599 46.37 96.5399 47.11C98.8599 48.07 101.57 49.6 102.87 51.88C102.92 51.92 102.96 51.96 103.01 52C103.17 52.15 103.31 52.31 103.46 52.46C103.46 52.46 103.46 52.47 103.47 52.48C103.61 52.71 103.77 52.93 103.9 53.17C103.96 53.26 104.01 53.36 104.06 53.46C104.09 53.52 104.11 53.55 104.12 53.58C104.27 54.1 104.43 54.87 104.45 54.99C104.47 55.09 104.49 55.16 104.51 55.21C104.53 55.46 104.53 55.75 104.54 55.84C104.62 56.88 104.63 57.91 104.97 58.92C105.1 59.3 105.27 59.68 105.49 60.04C105.45 60.07 105.41 60.09 105.39 60.1C104.89 60.47 104.4 60.85 103.95 61.29C103.27 61.95 102.63 62.73 102.09 63.51C101.72 64.05 101.53 64.66 101.34 65.28C101.08 65.36 100.83 65.43 100.59 65.54C99.6399 65.97 98.6899 66.6 97.7899 67.14C96.7399 67.78 95.9599 68.7 95.3999 69.75C96.5199 69.31 97.7699 69.23 98.9499 69.34C100.46 69.48 101.98 69.82 103.41 70.31C103.59 70.37 103.77 70.45 103.95 70.52C105.39 70.45 106.82 71 108.22 71.25C109.8 71.53 111.34 71.95 112.83 72.58C113.36 72.81 113.88 73.07 114.38 73.36C114.02 72.75 113.64 72.15 113.22 71.57C113.11 71.46 113.02 71.34 112.96 71.21C112.32 70.37 111.62 69.56 110.86 68.82C110.2 68.18 109.55 67.53 108.86 66.95C109.15 67.03 109.44 67.12 109.73 67.19C110.54 67.38 111.34 67.5 112.14 67.75C112.5 67.86 112.86 67.98 113.22 68.09C113.34 68.14 113.46 68.2 113.58 68.25C114.16 68.52 114.7 68.85 115.24 69.18C116.17 69.45 117.09 69.8 118 70.14C119.35 69.34 121.23 69.33 122.78 69.42C123.12 69.44 123.49 69.49 123.84 69.53C123.93 69.27 124.04 69.02 124.2 68.8C124.61 68.22 125.15 67.77 125.76 67.4C126.36 67.03 127.07 66.6 127.77 66.46C128.06 66.4 128.36 66.35 128.66 66.32C129.27 63.72 128.95 61.14 127.24 58.8C126.32 57.54 125.08 56.47 123.7 55.62C123.86 55.34 124.02 55.06 124.19 54.79C124.23 54.73 124.25 54.69 124.28 54.64C124.31 54.6 124.36 54.55 124.4 54.5C124.62 54.24 124.83 53.98 125.05 53.72C125.53 53.15 126.05 52.61 126.59 52.09C126.59 52.09 126.59 52.09 126.6 52.09C127.67 49.64 130.45 47.83 132.7 46.77C136.44 45 140.41 44.6 144.4 45.27C143.97 44.9 143.5 44.56 142.95 44.24C141.47 43.37 139.96 42.44 138.4 41.72C137.02 41.08 135.5 40.6 133.96 40.35C134.14 40.25 134.33 40.16 134.52 40.1C135.78 39.69 137.3 39.6 138.62 39.61C139.99 39.62 141.37 39.84 142.96 39.94C143.16 39.95 143.71 40 143.67 39.99C143.94 40.02 144.21 40.06 144.48 40.09C145.16 40.18 145.84 40.3 146.52 40.45C147.19 40.61 147.87 40.73 148.55 40.89C148.85 40.96 149.16 41.04 149.45 41.13C149.54 41.16 150.07 41.35 150.24 41.4C150.62 41.55 150.99 41.7 151.37 41.84C150.24 41.52 151.26 41.84 151.53 41.97C152.15 42.26 152.77 42.51 153.37 42.85C153.59 42.98 153.81 43.12 154.02 43.26C154.05 43.29 154.98 43.96 155.11 44.05C155.32 44.19 155.36 44.2 155.36 44.19C155.4 44.23 155.46 44.28 155.57 44.37C155.82 44.58 156.07 44.79 156.32 44.99C156.41 45.06 156.49 45.13 156.58 45.2C156.12 45.81 155.71 46.44 155.37 47.11C154.98 47.87 154.69 48.73 154.48 49.6C151.9 48.76 149.15 48.79 146.42 49.33C144.89 49.63 143.33 50.14 141.95 50.87C140.66 51.55 139.56 52.54 138.45 53.45C137.87 53.92 137.3 54.44 136.77 54.99C138.54 54.23 140.54 54.12 142.44 54.41C145.18 54.83 148.45 56.09 150.51 58.25C150.93 58.47 151.34 58.7 151.73 58.94C151.73 58.94 151.73 58.94 151.75 58.95C151.72 58.92 151.7 58.88 151.67 58.85C151.7 58.9 151.74 58.94 151.79 58.98C151.98 59.1 152.05 59.16 152.06 59.18C152.1 59.21 152.14 59.24 152.17 59.26C152.37 59.44 152.56 59.63 152.74 59.82C152.75 59.83 152.77 59.85 152.78 59.87C152.7 59.65 152.66 59.48 152.81 59.9C152.98 60.08 153.27 60.39 152.84 59.93C152.84 59.92 152.83 59.92 152.82 59.91C152.84 59.98 152.88 60.05 152.9 60.12C152.94 60.18 152.97 60.22 152.96 60.21C152.95 60.21 152.93 60.18 152.92 60.16C153.24 61.01 153.67 61.79 154.33 62.41C153.75 63.96 153.39 65.58 153.25 67.22C151.71 67.6 150.22 68.18 148.81 68.93C145.19 70.85 142.6 74.24 141.32 78.1C140.31 81.15 140.15 85.03 141.83 87.89C141.24 89 140.92 90.2 141.07 91.48C141.95 90.59 143.07 89.9 144.24 89.43C146.17 88.67 148.46 88.64 150.5 89.2C151.53 89.2 152.57 89.25 153.61 89.26C153.73 89.26 153.85 89.27 153.96 89.28C154.36 89.37 154.79 89.52 155.19 89.56C155.24 89.56 155.26 89.56 155.28 89.56C155.32 89.58 155.37 89.61 155.44 89.65C155.81 89.83 156.18 90 156.55 90.18C157.22 90.52 157.88 90.84 158.55 91.14C157.47 91.16 156.4 91.1 155.32 91.04C155.74 91.17 156.15 91.3 156.53 91.43C157.9 91.87 159.23 92.44 160.56 92.99C161.52 93.39 162.39 93.97 163.31 94.44C166.39 94.63 169.44 94.61 172.53 94.62C172.71 94.62 172.9 94.62 173.09 94.62C176.38 93.55 180.05 93.55 183.38 94.42C184.6 94.74 185.72 95.38 186.68 96.2C186.14 94.56 185.28 93.02 184.15 91.73C181.9 89.14 178.6 87.91 175.23 87.66C172.77 87.48 170.32 88.03 167.95 88.77C167.17 88.36 166.44 87.88 165.76 87.28C164.51 86.17 163.47 84.88 162.32 83.67C161.66 82.98 160.97 82.38 160.23 81.89C160.26 81.89 160.29 81.89 160.31 81.88C160.33 81.88 160.5 81.85 160.66 81.81C160.8 81.79 160.97 81.77 161.03 81.77C161.28 81.75 161.52 81.74 161.77 81.72C162.33 81.69 162.89 81.66 163.45 81.66C164.15 81.66 164.85 81.66 165.55 81.66C167.46 80.47 169.9 80.06 172.09 80.32C173.15 80.44 174.38 80.67 175.41 81.15C174.83 79.4 174.11 77.65 172.86 76.31C171.66 75.02 170 74.05 168.24 73.39C167.95 72.86 167.63 72.35 167.28 71.86C166 70.1 164.08 68.58 162.07 67.74C161.03 67.3 159.96 67.02 158.88 66.87C159.92 66.07 161.04 65.36 162.28 64.72C162.35 64.69 162.54 64.57 162.7 64.48C163.26 64.19 163.85 63.97 164.4 63.66C164.44 63.64 164.45 63.63 164.48 63.62C164.85 63.46 165.22 63.31 165.58 63.13C165.62 63.11 165.64 63.1 165.67 63.08C165.7 63.08 165.71 63.06 165.74 63.05C166.6 62.75 167.45 62.49 168.34 62.31C168.54 62.29 169.07 62.22 169.14 62.22C169.66 62.18 170.19 62.16 170.71 62.16C171.36 62.16 172.01 62.18 172.66 62.22C172.23 62.38 171.81 62.57 171.39 62.77C169.6 63.64 167.89 64.89 166.57 66.46C168.33 66.26 170.07 66.75 171.74 67.32C172.84 67.7 173.92 68.13 174.92 68.69C174.98 68.67 175.04 68.64 175.11 68.63C178.77 68.1 182.61 68.17 186.04 69.7C186.41 69.86 186.78 70.06 187.15 70.27C187.1 70.15 187.06 70.04 187.01 69.92C186.64 68.94 186.25 67.97 185.67 67.09C185.39 66.66 185.1 66.22 184.79 65.81C184.79 65.81 184.8 65.81 184.81 65.82C186.22 66.76 187.27 68.35 188.05 69.82C188.14 70 188.44 69.94 188.48 69.75C189.28 66.05 187.98 61.43 185.67 58.47C182.2 54.02 176.34 52.43 170.91 52.29L170.88 52.24ZM88.0099 34.52C86.2499 34.63 84.4599 34.94 82.8399 35.65C81.0699 36.43 79.6099 37.54 78.2599 38.94C76.6499 40.6 74.7099 42.94 74.0699 45.34C73.0599 45.08 72.0099 44.96 70.9499 44.86C68.9399 44.68 66.8799 44.89 64.9399 45.46C65.3599 44.22 65.6799 42.93 65.8699 41.6C65.9899 40.75 66.0699 39.9 66.1499 39.05C66.9299 39.47 67.8899 39.63 68.6599 39.51C70.1699 39.27 71.2199 38.21 71.6799 36.78C71.6999 36.71 71.7499 36.56 71.7899 36.44C71.9299 36.08 72.0799 35.71 72.2099 35.34C72.2199 35.29 72.2399 35.25 72.2499 35.2C72.2999 35.08 72.3399 34.96 72.3999 34.86C72.8299 33.98 73.3499 33.1 73.8799 32.27C74.0099 32.07 74.1399 31.88 74.2799 31.68C74.5599 31.35 74.8399 31.03 75.1599 30.73C75.3099 30.58 75.5099 30.45 75.6399 30.29C75.5799 30.35 75.5499 30.4 75.4999 30.45C75.9299 30.16 76.3799 29.88 76.8199 29.62C76.9499 29.54 77.0999 29.48 77.2399 29.41C76.7199 29.6 76.9699 29.53 77.2399 29.41C77.3299 29.37 77.4299 29.32 77.4999 29.26C77.4399 29.31 77.3399 29.36 77.2399 29.41C77.6799 29.25 78.1399 29.11 78.5999 28.98C78.8499 28.91 79.0899 28.86 79.3399 28.8C79.4099 28.79 79.4599 28.78 79.4999 28.77C79.5699 28.76 79.6399 28.75 79.7299 28.73C78.4499 29.98 77.3899 31.45 76.6099 33.04C78.4899 32.22 80.5199 32.25 82.4999 32.72C82.5099 32.72 82.5299 32.73 82.5399 32.73C84.7299 32.71 87.0199 33.25 88.9099 33.84C89.1599 33.92 89.4099 34 89.6699 34.08C89.7199 34.1 89.7599 34.11 89.7999 34.12C89.8099 34.12 89.8199 34.13 89.8299 34.14C90.1199 34.31 90.4099 34.46 90.6999 34.62C89.8099 34.51 88.9099 34.49 88.0199 34.54L88.0099 34.52ZM110.25 45.01C110.27 45.09 110.3 45.15 110.32 45.22C108.86 43.7 107.1 42.51 105.16 41.68C105.18 41.64 105.2 41.59 105.22 41.55C105.43 41.56 105.64 41.57 105.85 41.57C105.85 41.57 105.85 41.57 105.87 41.57C105.95 41.58 106.04 41.59 106.12 41.61C106.38 41.66 106.64 41.72 106.89 41.77C107.15 41.82 107.41 41.87 107.67 41.94C107.77 41.97 108.23 42.14 108.29 42.15C108.34 42.17 108.38 42.19 108.4 42.2C108.63 42.31 108.85 42.43 109.07 42.56C109.24 42.73 109.42 42.9 109.58 43.08C109.6 43.11 109.61 43.14 109.63 43.16C109.86 43.78 110.08 44.4 110.39 45.02C110.3 44.83 110.18 44.6 110.17 44.6C110.15 44.62 110.25 44.98 110.26 45.02L110.25 45.01ZM151.35 80.67C148.81 81.28 146.45 82.58 144.52 84.41C143.95 84.95 143.39 85.54 142.89 86.16C142.97 85.19 143.24 84.23 143.77 83.43C144.48 82.35 145.69 81.57 146.73 80.86C147.86 80.08 149.08 79.48 150.25 78.79C150.83 78.45 151.41 78.14 152.01 77.84C151.64 78.74 151.42 79.7 151.35 80.67Z" fill="#F5FCFF"/>
<path d="M108.86 42.1801C108.93 42.2701 109.01 42.3601 109.09 42.4601C109.09 42.4601 109.09 42.4601 109.08 42.4601C109.01 42.3701 108.93 42.2801 108.86 42.1901V42.1801Z" fill="#F5FCFF"/>
<path d="M109.25 42.65C109.33 42.75 109.42 42.86 109.5 42.96C109.51 42.98 109.52 43 109.53 43.02L109.23 42.65C109.23 42.65 109.23 42.65 109.24 42.65H109.25Z" fill="#F5FCFF"/>
<path d="M94.0601 25.48C94.1501 25.63 94.2201 25.76 94.2501 25.84C94.2401 25.84 94.2201 25.83 94.2101 25.82C94.1301 25.63 94.0701 25.5 94.0601 25.47V25.48Z" fill="#F5FCFF"/>
<path d="M103.86 53C103.92 53 103.99 53.19 104.07 53.44C104.03 53.36 103.97 53.22 103.86 53Z" fill="#F5FCFF"/>
<path d="M105.47 59.98C105.43 60.01 105.44 60.01 105.47 59.98V59.98Z" fill="#F5FCFF"/>
<path d="M164.1 51.49C164.14 51.43 164.19 51.37 164.23 51.31C164.42 51.04 164.37 51.11 164.1 51.49Z" fill="#F5FCFF"/>
<path d="M164.1 51.49C164.1 51.49 164.06 51.55 164.04 51.58C164.07 51.54 164.08 51.52 164.11 51.49H164.1Z" fill="#F5FCFF"/>
<path d="M151.7 58.89C151.84 59.05 152.02 59.15 152.01 59.12C151.92 59.06 151.83 58.99 151.74 58.92C151.72 58.91 151.71 58.9 151.69 58.89H151.7Z" fill="#F5FCFF"/>
<path d="M152.83 60.03C152.83 60.03 152.86 60.08 152.87 60.1C152.87 60.09 152.86 60.07 152.85 60.06C152.85 60.05 152.84 60.04 152.82 60.03H152.83Z" fill="#F5FCFF"/>
<path d="M152.77 59.8499C152.77 59.8499 152.75 59.8299 152.74 59.8199C152.74 59.8199 152.74 59.8199 152.74 59.8299C152.75 59.8399 152.76 59.8499 152.77 59.8599C152.77 59.8599 152.77 59.8599 152.77 59.8499Z" fill="#F5FCFF"/>
<path d="M152.83 60.0299C152.8 59.9699 152.77 59.8999 152.74 59.8199C152.35 59.4099 152.66 59.7999 152.83 60.0299Z" fill="#F5FCFF"/>
<path d="M120.08 91.86C121.83 92.12 123.4 93.04 124.64 94.32C125.06 92.95 125.14 91.47 124.66 90.11C123.95 88.13 122.57 86.48 120.59 85.71C119.18 85.16 117.5 85.27 116.01 85.4C114.55 85.52 113.06 85.6 111.76 86.31C112.81 86.53 113.84 87 114.77 87.52C115.66 88.01 116.45 88.63 117.1 89.35C118.26 89.87 119.27 90.88 120.08 91.87V91.86Z" fill="#F5FCFF"/>
<g style="mix-blend-mode:multiply" opacity="0.5">
<path d="M201.18 165.56C201.25 165.67 201.31 165.77 201.39 165.86C201.54 166.03 201.74 166.13 201.93 166.25C201.99 166.28 202.04 166.33 202.1 166.35C202.31 166.46 201.79 165.97 201.94 166.19C202.01 166.29 202.07 166.39 202.12 166.5L201.93 166.08C202.11 166.47 202.27 166.76 202.56 167.08C202.67 167.21 202.79 167.33 202.9 167.46C203 167.58 203.1 167.7 203.2 167.82C203.44 168.11 203.79 168.32 204.13 168.48C204.45 168.63 204.76 168.78 205.06 168.96C205.33 169.12 205.57 169.26 205.88 169.38C206.34 169.56 206.6 169.68 207.15 169.65C207.7 169.62 208.22 169.46 208.72 169.17C209.27 168.85 209.66 168.31 209.89 167.73C210.13 167.11 210.17 166.47 209.99 165.81C209.67 164.65 208.66 163.81 207.5 163.6C207.22 163.55 206.94 163.51 206.66 163.46C206.42 163.41 206.17 163.37 205.92 163.33C205.31 163.24 204.88 163.19 204.28 163.39C204.17 163.43 204.05 163.47 203.94 163.51C203.71 163.6 203.48 163.69 203.25 163.78C202.81 163.97 202.72 164.01 202.36 164.33C202.33 164.36 202.3 164.38 202.28 164.41C202.18 164.51 202.23 164.47 202.43 164.29C202.39 164.32 202.34 164.35 202.3 164.38C202.2 164.45 202.21 164.44 202.34 164.37C202.31 164.42 202.03 164.46 201.97 164.48C201.66 164.57 201.45 164.72 201.24 164.95C201.09 165.12 201.06 165.37 201.18 165.57V165.56Z" fill="#98D5FB"/>
</g>
<g style="mix-blend-mode:multiply" opacity="0.5">
<path d="M205.43 191.85C205.57 191.9 205.7 191.96 205.83 192.03C205.92 192.08 206.09 192.27 205.93 192.08C205.68 191.77 205.88 192.02 205.93 192.08C206.21 192.48 205.83 191.75 205.93 192L205.9 190.86C205.76 191.64 205.8 192.5 206.24 193.19C206.34 193.34 206.46 193.48 206.56 193.64C206.81 194.01 207.02 194.39 207.34 194.71C207.51 194.88 207.72 195.02 207.92 195.17C209.08 196.06 210.38 197.1 211.83 197.47C212.65 197.68 213.5 197.56 214.26 197.22C214.97 196.9 215.65 196.36 216.01 195.65C216.75 194.17 216.57 192.3 215.31 191.13C214.2 190.1 212.6 189.56 211.2 189.06C210.54 188.82 209.9 188.75 209.19 188.78C208.86 188.79 208.56 188.81 208.23 188.86C207.84 188.92 207.44 189.04 207.11 189.27C206.67 189.56 206.39 189.92 206.1 190.35L206.85 189.56C206.85 189.56 206.72 189.65 206.71 189.64L206.98 189.52L206.56 189.71C206.44 189.77 206.31 189.83 206.2 189.9C206.06 189.99 206.4 189.83 206.21 189.89C206.11 189.92 206.01 189.98 205.91 190.02C205.73 190.1 205.56 190.19 205.39 190.29C204.86 190.61 204.78 191.58 205.43 191.84V191.85Z" fill="#98D5FB"/>
</g>
<g style="mix-blend-mode:multiply" opacity="0.5">
<path d="M139.59 194.66C138.81 194.73 138.04 194.85 137.27 194.97C136.94 195.03 136.58 195.06 136.27 195.17C135.96 195.28 135.64 195.42 135.34 195.55C134.79 195.79 134.22 196.01 133.72 196.34C133.44 196.53 133.16 196.72 132.88 196.92C132.35 197.3 131.87 197.74 131.4 198.19C131.27 198.32 131.13 198.45 131.01 198.58C130.43 199.18 130.18 199.89 129.91 200.65L129.8 201.66L129.96 202.66C130.2 203.45 130.7 204.11 131.36 204.59C131.6 204.82 131.88 204.97 132.2 205.06C132.5 205.22 132.82 205.3 133.16 205.29C133.5 205.37 133.83 205.36 134.16 205.27C134.66 205.23 135.13 205.07 135.55 204.79C135.93 204.55 136.25 204.35 136.59 204C136.87 203.71 137.1 203.32 137.33 202.97C137.48 202.74 137.64 202.52 137.8 202.3C138.09 201.89 138.34 201.45 138.61 201.02C139.24 200.02 139.69 198.9 140.11 197.8L139.89 198.36C140.14 197.73 140.41 197.1 140.7 196.49C141.08 195.71 140.58 194.58 139.59 194.67V194.66Z" fill="#98D5FB"/>
</g>
<g style="mix-blend-mode:multiply" opacity="0.5">
<path d="M90.78 198.01C90.23 197.64 89.62 197.39 88.97 197.23C88.28 197.06 87.51 197.12 86.81 197.19C85.46 197.33 84.1 197.45 82.8 197.88L83.82 197.72C83.72 197.73 83.62 197.73 83.52 197.74C82.87 197.77 82.41 197.89 81.85 198.14C81.11 198.47 81.23 198.44 80.45 199.09C80.36 199.17 80.27 199.24 80.18 199.32C79.79 199.7 79.52 200.15 79.36 200.66C79.12 201.15 79.01 201.68 79.05 202.25C79.11 203.17 79.4 203.99 79.99 204.71C80.53 205.37 81.29 205.95 82.16 206.13C83.2 206.34 84.42 206.28 85.31 205.64C85.69 205.36 86.08 205.11 86.42 204.77C87.06 204.12 87.24 203.61 87.56 202.77L87.18 203.75C87.22 203.65 87.26 203.55 87.31 203.45L86.73 204.25C87.31 203.57 87.94 202.9 88.63 202.33L88.03 202.81C88.35 202.59 88.67 202.38 89.01 202.19C89.16 202.11 89.31 202.02 89.46 201.95C89.79 201.78 90.06 201.51 90.35 201.27L89.87 201.66C90.33 201.29 90.76 200.93 91.18 200.52C91.54 200.17 91.66 199.65 91.59 199.16C91.51 198.64 91.23 198.3 90.8 198.01H90.78Z" fill="#98D5FB"/>
</g>
<g style="mix-blend-mode:multiply" opacity="0.5">
<path d="M30.9099 173.29L30.8699 173.23L31.2899 173.91C30.9399 173.08 30.6099 172.5 29.7899 172.03C29.1799 171.67 28.5399 171.33 27.8599 171.14C26.4999 170.75 25.1399 170.51 23.7299 170.36C22.5599 170.24 21.3799 170.17 20.1999 170.15C19.3199 170.13 18.4299 170.32 17.5699 170.47C16.5799 170.64 15.7299 170.79 14.8499 171.35C13.2299 172.37 12.2499 174.6 12.9099 176.47C13.5999 178.43 15.2599 179.57 17.3199 179.66C18.2299 179.7 19.0799 179.37 19.9399 179.14C20.4899 178.99 21.0399 178.87 21.5699 178.67C22.5899 178.31 23.6299 178.01 24.6799 177.78C25.1799 177.67 25.6899 177.6 26.1899 177.46C26.4199 177.39 26.8499 177.14 27.0899 177.21L26.7099 177.27C26.8699 177.24 27.0299 177.22 27.1999 177.2C27.9699 177.08 28.5899 176.9 29.3099 176.63C29.7799 176.46 30.2199 176.3 30.5699 175.91C30.6299 175.83 30.6899 175.76 30.7499 175.68C30.8899 175.51 30.8599 175.52 30.6599 175.69C31.7999 175.32 31.8199 173.92 30.9099 173.29Z" fill="#98D5FB"/>
</g>
<g style="mix-blend-mode:multiply" opacity="0.5">
<path d="M34.6101 197.48L34.5801 197.45L34.9401 197.89C34.7801 197.69 34.6201 197.47 34.4401 197.28C34.1001 196.9 33.5601 196.73 33.0901 196.58C32.6201 196.43 32.1601 196.37 31.6501 196.33C30.8501 196.27 30.1001 196.41 29.3101 196.54L30.2301 196.39H30.1701C30.4801 196.43 30.7901 196.47 31.1001 196.5C30.7201 196.45 30.3301 196.41 29.9401 196.37L28.9701 196.52L28.1001 196.91L27.3701 197.5L26.8201 198.25L26.4701 199.13L26.3601 200.11L26.5101 201.08C26.6301 201.55 26.8601 201.96 27.2001 202.31C27.3701 202.58 27.5901 202.79 27.8701 202.95C28.1001 203.17 28.3801 203.32 28.6901 203.4C28.9801 203.56 29.2901 203.63 29.6201 203.63C29.9501 203.71 30.2701 203.7 30.5901 203.61C30.9201 203.61 31.2301 203.51 31.5101 203.34C31.8201 203.25 32.0801 203.08 32.3101 202.85C32.5801 202.68 32.7901 202.46 32.9501 202.18C33.2601 201.82 33.4701 201.4 33.5701 200.92C33.5901 200.86 33.6101 200.8 33.6301 200.75L32.7701 202.32C33.0001 202.04 33.2601 201.79 33.5401 201.56L32.9201 202.06C33.2901 201.76 33.6601 201.47 34.0201 201.17L33.4601 201.63C33.6001 201.52 33.7501 201.41 33.9001 201.3C34.3001 201.02 34.6201 200.73 34.8701 200.31C34.9001 200.26 34.9301 200.2 34.9601 200.15L34.6201 200.61L34.6501 200.57C34.8601 200.37 35.0001 200.13 35.0801 199.86C35.2101 199.6 35.2701 199.31 35.2501 199.01L35.1601 198.43C35.0501 198.06 34.8501 197.75 34.5701 197.48H34.6101Z" fill="#98D5FB"/>
</g>
</g>
<defs>
<clipPath id="clip0_323_3565">
<rect width="216.44" height="206.23" fill="white"/>
</clipPath>
</defs>
</svg>
