<svg fill="none" height="24" viewBox="0 0 24 24" width="24" xmlns="http://www.w3.org/2000/svg" xmlns:xlink="http://www.w3.org/1999/xlink"><clipPath id="a"><path d="m0 0h24v24h-24z"/></clipPath><g clip-path="url(#a)"><path d="m8.11007 13.7678 3.53603 3.535c.0937.0937.2209.1464.3535.1464s.2597-.0527.3535-.1464l3.536-3.535c.0937-.0937.2209-.1464.3535-.1464s.2597.0527.3535.1464l1.556 1.555c.0937.0938.1464.2209.1464.3535s-.0527.2597-.1464.3535l-5.799 5.799c-.0938.0937-.2209.1464-.3535.1464s-.2598-.0527-.3535-.1464l-5.79803-5.799c-.09373-.0938-.14639-.2209-.14639-.3535s.05266-.2597.14639-.3535l1.556-1.555c.09377-.0937.22092-.1464.35351-.1464.13258 0 .25973.0527.35349.1464zm12.09403-3.735.069.058 1.556 1.555c.0828.0827.134.1919.1446.3085s-.0201.2332-.0866.3295l-.058.07-1.556 1.555c-.0828.0828-.1919.134-.3085.1446s-.2332-.02-.3295-.0866l-.069-.058-1.556-1.556c-.0824-.0828-.1333-.1918-.1437-.3082-.0104-.1163.0203-.2327.0867-.3288l.057-.07 1.556-1.555c.0721-.0722.1647-.12055.2651-.13861.1005-.01805.2041-.00493.2969.03762zm-15.77003.058 1.556 1.555c.09374.0938.1464.2209.1464.3535s-.05266.2597-.1464.3535l-1.556 1.557c-.09376.0937-.22091.1464-.3535.1464-.13258 0-.25973-.0527-.3535-.1464l-1.557-1.557c-.09373-.0938-.14639-.2209-.14639-.3535s.05266-.2597.14639-.3535l1.556-1.555c.09377-.09373.22092-.14639.35351-.14639.13258 0 .26073.05266.35449.14639zm7.85003-.058.07.058 1.555 1.555c.0828.0827.134.1919.1446.3085s-.0201.2332-.0866.3295l-.058.07-1.555 1.555c-.0828.0828-.1919.134-.3085.1446s-.2332-.02-.3295-.0866l-.07-.058-1.555-1.556c-.0826-.0827-.13361-.1916-.14421-.308-.01059-.1164.0199-.2328.08621-.329l.058-.07 1.555-1.555c.0721-.0722.1647-.12055.2651-.13861.1005-.01805.2041-.00493.2969.03762zm.07-7.86199 5.798 5.798c.0937.09376.1464.22092.1464.3535s-.0527.25973-.1464.3535l-1.556 1.55599c-.0938.0937-.2209.1464-.3535.1464s-.2598-.0527-.3535-.1464l-3.535-3.53499c-.0465-.04657-.1016-.08351-.1624-.10872-.0607-.0252-.1259-.03818-.1916-.03818-.0658 0-.1309.01298-.1917.03818-.0607.02521-.1159.06215-.1623.10872l-3.53503 3.53499c-.09376.0937-.22091.1464-.35349.1464-.13259 0-.25974-.0527-.35351-.1464l-1.556-1.55599c-.09373-.09377-.14639-.22092-.14639-.3535s.05266-.25974.14639-.3535l5.79803-5.798c.0937-.09374.2209-.1464.3535-.1464s.2607.05266.3545.1464z" fill="#ffc900"/></g></svg>