<svg width="54" height="55" viewBox="0 0 54 55" fill="none" xmlns="http://www.w3.org/2000/svg">
<g clip-path="url(#clip0_380_64)">
<g clip-path="url(#clip1_380_64)">
<g filter="url(#filter0_d_380_64)">
<path d="M43.125 24.5244H30C28.8065 24.5244 27.6619 24.0503 26.818 23.2064C25.9741 22.3625 25.5 21.2179 25.5 20.0244V6.89941C25.5 6.79996 25.4605 6.70458 25.3902 6.63425C25.3198 6.56392 25.2245 6.52441 25.125 6.52441H16.5C14.9087 6.52441 13.3826 7.15656 12.2574 8.28177C11.1321 9.40699 10.5 10.9331 10.5 12.5244V42.5244C10.5 44.1157 11.1321 45.6418 12.2574 46.7671C13.3826 47.8923 14.9087 48.5244 16.5 48.5244H37.5C39.0913 48.5244 40.6174 47.8923 41.7426 46.7671C42.8679 45.6418 43.5 44.1157 43.5 42.5244V24.8994C43.5 24.8 43.4605 24.7046 43.3902 24.6342C43.3198 24.5639 43.2245 24.5244 43.125 24.5244Z" fill="#BF8DFF"/>
<path d="M43.125 23.5244H30C29.0717 23.5244 28.1815 23.1557 27.5251 22.4993C26.8687 21.8429 26.5 20.9527 26.5 20.0244V6.89941C26.5 6.53474 26.3551 6.18501 26.0973 5.92714C25.8394 5.66928 25.4897 5.52441 25.125 5.52441H16.5C14.6435 5.52441 12.863 6.26191 11.5503 7.57467C10.2375 8.88742 9.5 10.6679 9.5 12.5244V42.5244C9.5 44.3809 10.2375 46.1614 11.5503 47.4742C12.863 48.7869 14.6435 49.5244 16.5 49.5244H37.5C39.3565 49.5244 41.137 48.7869 42.4497 47.4742C43.7625 46.1614 44.5 44.3809 44.5 42.5244V24.8994C44.5 24.5347 44.3551 24.185 44.0973 23.9272L43.3902 24.6342L44.0973 23.9271C43.8394 23.6693 43.4897 23.5244 43.125 23.5244Z" stroke="#7F50BB" stroke-width="2"/>
</g>
<g filter="url(#filter1_d_380_64)">
<path d="M44.9398 18.7164L31.4576 5.23421C31.4314 5.20815 31.3981 5.19042 31.3618 5.18325C31.3255 5.17608 31.288 5.17979 31.2538 5.19392C31.2196 5.20804 31.1904 5.23195 31.1698 5.26264C31.1492 5.29333 31.1381 5.32943 31.1379 5.3664V17.5361C31.1379 17.9339 31.296 18.3154 31.5773 18.5967C31.8586 18.8781 32.2401 19.0361 32.6379 19.0361H44.8076C44.8446 19.0359 44.8807 19.0249 44.9114 19.0042C44.9421 18.9836 44.966 18.9544 44.9801 18.9202C44.9942 18.8861 44.998 18.8485 44.9908 18.8122C44.9836 18.776 44.9659 18.7426 44.9398 18.7164Z" fill="#BF8DFF"/>
<path d="M45.6469 18.0093L45.649 18.0114C45.8141 18.1774 45.9264 18.3886 45.9718 18.6183C46.0172 18.848 45.9937 19.086 45.9042 19.3024L45.6469 18.0093ZM45.6469 18.0093L32.1647 4.52711L32.1647 4.5271M45.6469 18.0093L32.1647 4.5271M32.1647 4.5271L32.1626 4.52501M32.1647 4.5271L32.1626 4.52501M32.1626 4.52501C31.9966 4.35995 31.7854 4.24765 31.5557 4.20223C31.326 4.15683 31.0881 4.18033 30.8717 4.2698C30.6553 4.35927 30.4702 4.51071 30.3397 4.70507C30.2091 4.89944 30.1389 5.12807 30.1379 5.3622L30.1379 5.3622M32.1626 4.52501L30.1379 5.3622M30.1379 5.3622V5.3664M30.1379 5.3622V5.3664M30.1379 5.3664V17.5361C30.1379 18.1991 30.4013 18.835 30.8702 19.3039C31.339 19.7727 31.9749 20.0361 32.6379 20.0361L44.8076 20.0361L44.8118 20.0361M30.1379 5.3664L44.8118 20.0361M44.8118 20.0361C45.0459 20.0351 45.2746 19.9649 45.469 19.8344M44.8118 20.0361L45.469 19.8344M45.469 19.8344C45.6633 19.7038 45.8148 19.5187 45.9042 19.3024L45.469 19.8344Z" stroke="#7F50BB" stroke-width="2"/>
</g>
</g>
</g>
<defs>
<filter id="filter0_d_380_64" x="8.5" y="4.52441" width="39" height="48" filterUnits="userSpaceOnUse" color-interpolation-filters="sRGB">
<feFlood flood-opacity="0" result="BackgroundImageFix"/>
<feColorMatrix in="SourceAlpha" type="matrix" values="0 0 0 0 0 0 0 0 0 0 0 0 0 0 0 0 0 0 127 0" result="hardAlpha"/>
<feOffset dx="2" dy="2"/>
<feComposite in2="hardAlpha" operator="out"/>
<feColorMatrix type="matrix" values="0 0 0 0 0.498039 0 0 0 0 0.313726 0 0 0 0 0.733333 0 0 0 0.25 0"/>
<feBlend mode="normal" in2="BackgroundImageFix" result="effect1_dropShadow_380_64"/>
<feBlend mode="normal" in="SourceGraphic" in2="effect1_dropShadow_380_64" result="shape"/>
</filter>
<filter id="filter1_d_380_64" x="29.1379" y="3.17969" width="19.8564" height="19.8564" filterUnits="userSpaceOnUse" color-interpolation-filters="sRGB">
<feFlood flood-opacity="0" result="BackgroundImageFix"/>
<feColorMatrix in="SourceAlpha" type="matrix" values="0 0 0 0 0 0 0 0 0 0 0 0 0 0 0 0 0 0 127 0" result="hardAlpha"/>
<feOffset dx="2" dy="2"/>
<feComposite in2="hardAlpha" operator="out"/>
<feColorMatrix type="matrix" values="0 0 0 0 0.498039 0 0 0 0 0.313726 0 0 0 0 0.733333 0 0 0 0.25 0"/>
<feBlend mode="normal" in2="BackgroundImageFix" result="effect1_dropShadow_380_64"/>
<feBlend mode="normal" in="SourceGraphic" in2="effect1_dropShadow_380_64" result="shape"/>
</filter>
<clipPath id="clip0_380_64">
<rect width="54" height="54" fill="white" transform="translate(0 0.524414)"/>
</clipPath>
<clipPath id="clip1_380_64">
<rect width="48" height="48" fill="white" transform="translate(3 3.52441)"/>
</clipPath>
</defs>
</svg>
