<svg width="54" height="55" viewBox="0 0 54 55" fill="none" xmlns="http://www.w3.org/2000/svg">
<g clip-path="url(#clip0_380_74)">
<g filter="url(#filter0_d_380_74)">
<path d="M27 5.02441C39.4268 5.02441 49.5 15.0977 49.5 27.5244C49.5 39.9512 39.4268 50.0244 27 50.0244C14.5733 50.0244 4.5 39.9512 4.5 27.5244C4.5 15.0977 14.5733 5.02441 27 5.02441ZM27 14.0244C26.4033 14.0244 25.831 14.2615 25.409 14.6834C24.9871 15.1054 24.75 15.6777 24.75 16.2744V27.5244C24.7501 28.1211 24.9873 28.6933 25.4093 29.1152L32.1593 35.8652C32.5836 36.275 33.152 36.5018 33.7419 36.4967C34.3318 36.4916 34.8962 36.2549 35.3133 35.8378C35.7305 35.4206 35.9671 34.8563 35.9723 34.2663C35.9774 33.6764 35.7506 33.108 35.3407 32.6837L29.25 26.5929V16.2744C29.25 15.6777 29.0129 15.1054 28.591 14.6834C28.169 14.2615 27.5967 14.0244 27 14.0244Z" fill="#F79422"/>
<path d="M23.75 27.5244V27.5246C23.7502 28.3865 24.0927 29.2129 24.7021 29.8223C24.7022 29.8223 24.7022 29.8223 24.7022 29.8224L31.4521 36.5723L31.4583 36.5784L31.4645 36.5845C32.0775 37.1765 32.8985 37.504 33.7506 37.4966C34.6027 37.4892 35.4179 37.1474 36.0204 36.5449C36.623 35.9423 36.9648 35.1271 36.9722 34.275C36.9796 33.4229 36.6521 32.6019 36.06 31.989L36.054 31.9827L36.0479 31.9766L30.25 26.1787V16.2744C30.25 15.4125 29.9076 14.5858 29.2981 13.9763C28.6886 13.3668 27.862 13.0244 27 13.0244C26.138 13.0244 25.3114 13.3668 24.7019 13.9763C24.0924 14.5858 23.75 15.4125 23.75 16.2744V27.5244ZM27 6.02441C38.8745 6.02441 48.5 15.65 48.5 27.5244C48.5 39.3989 38.8745 49.0244 27 49.0244C15.1255 49.0244 5.5 39.3989 5.5 27.5244C5.5 15.65 15.1255 6.02441 27 6.02441Z" stroke="#CF7917" stroke-width="2"/>
</g>
</g>
<defs>
<filter id="filter0_d_380_74" x="4.5" y="5.02441" width="47" height="47" filterUnits="userSpaceOnUse" color-interpolation-filters="sRGB">
<feFlood flood-opacity="0" result="BackgroundImageFix"/>
<feColorMatrix in="SourceAlpha" type="matrix" values="0 0 0 0 0 0 0 0 0 0 0 0 0 0 0 0 0 0 127 0" result="hardAlpha"/>
<feOffset dx="2" dy="2"/>
<feComposite in2="hardAlpha" operator="out"/>
<feColorMatrix type="matrix" values="0 0 0 0 0.811765 0 0 0 0 0.47451 0 0 0 0 0.0901961 0 0 0 0.25 0"/>
<feBlend mode="normal" in2="BackgroundImageFix" result="effect1_dropShadow_380_74"/>
<feBlend mode="normal" in="SourceGraphic" in2="effect1_dropShadow_380_74" result="shape"/>
</filter>
<clipPath id="clip0_380_74">
<rect width="54" height="54" fill="white" transform="translate(0 0.524414)"/>
</clipPath>
</defs>
</svg>
