<svg fill="none" height="104" viewBox="0 0 65 104" width="65" xmlns="http://www.w3.org/2000/svg"><g fill="#2a4c75"><path d="m48.1763 101.75c11.9261 4.548 16.7757.239 16.7757-2.4808-4.225-.3508-14.3198-.9214-16.7757 2.4808z"/><path d="m43.3062 100.959c-3.6663.253-7.3048-.785-10.2664-2.9286 4.8354-3.8165 15.9476-2.497 20.0172-1.3835-2.6287 2.5303-6.0844 4.0581-9.7508 4.3121z"/><path d="m53.2152 89.1892c-.4521 5.6594 5.4318 8.8412 11.7848 9.3006-1.1587-5.6928-7.0906-8.2344-11.7848-9.3006z"/><path d="m41.8204 83.9724c-.6726 2.4191.2516 8.986 9.3911 11.5916-.3928-4.4345-2.7865-10.2081-9.3911-11.5916z"/><path d="m32.4268 94.5698c-3.2972-.2904-6.3865-1.7108-8.73-4.0138 5.5871-2.781 14.3819-.27 18.0445 1.5895-2.7212 1.8569-6.0173 2.7148-9.3145 2.4243z"/><path d="m33.3535 77.4556c-1.252 2.3829-1.5176 9.1725 6.5735 13.2591.4691-4.3705-1.3142-11.8449-6.5735-13.2591z"/><path d="m16.4473 83.9401c-1.2909-1.0609-2.3493-2.3692-3.111-3.8455 3.8492-1.5895 11.9883.2227 17.0894 4.9468-1.4234.8474-3.0101 1.3939-4.6595 1.6048-1.6493.2109-3.3251.0815-4.921-.38-1.6108-.4737-3.1071-1.2651-4.3979-2.3261z"/><path d="m25.432 67.4368c-3.6287 6.2357.2063 13.3565 4.1967 16.2823 1.7748-5.7958.1441-12.1122-4.1967-16.2823z"/><path d="m6.60459 67.1668c-.43804 9.6847 9.82911 9.1586 14.65041 9.2226-1.5176-2.0349-9.9535-9.4119-14.65041-9.2226z"/><path d="m19.2655 58.1196c-1.9076 2.0683-4.7705 10.0187 1.5684 16.5049 1.9868-4.6906 2.422-11.8922-1.5684-16.5049z"/><path d="m1.22091 53.827c-.327828 7.8224 6.35586 11.7809 12.80219 11.7197-1.9387-3.7693-7.12176-11.0349-12.80219-11.7197z"/><path d="m14.7437 48.4376c-4.273 2.4776-3.7869 10.4781-1.2661 14.6426 2.8318-3.8777 4.9457-8.6964 1.2661-14.6426z"/><path d="m.941124 41.108c-2.113914 7.1236 4.097816 11.9423 7.825426 12.3543-.95522-3.4017-2.20434-9.4286-7.825426-12.3543z"/><path d="m13.9609 38.739c-4.71108 2.3244-6.94369 7.8836-5.18021 12.8944 3.28671-2.6084 7.24611-8.1258 5.18021-12.8944z"/><path d="m.72068 30.1204c-2.91087 8.6659 3.77284 11.497 6.25979 12.1929-.29674-3.6857-2.67631-11.032-6.25979-12.1929z"/><path d="m13.7744 27.8461c-1.9105.5428-7.35632 4.9468-6.37001 12.8332 3.58351-1.9876 7.93561-5.7736 6.37001-12.8332z"/><path d="m2.69331 16.9894c-3.255657 10.6507 2.17606 15.024 3.95932 15.8953.28261-3.3683.62741-11.238-3.95932-15.8953z"/><path d="m14.7437 17.2567c-3.4111.9381-7.71519 7.1069-7.51172 13.0391 3.38002-1.5255 8.43592-7.8697 7.51172-13.0391z"/><path d="m13.7263.737793c-7.91865 8.061787-9.0293 14.419907-6.71474 22.259007 3.58634-3.1791 6.44914-12.719 6.71474-22.259007z"/></g></svg>