<svg fill="none" height="104" viewBox="0 0 65 104" width="65" xmlns="http://www.w3.org/2000/svg"><g fill="#2a4c75"><path d="m16.8237 101.75c-11.92609 4.548-16.7756614.239-16.7756614-2.4808 4.2250014-.3508 14.3197614-.9214 16.7756614 2.4808z"/><path d="m21.6938 100.959c3.6663.253 7.3048-.785 10.2664-2.9286-4.8354-3.8165-15.9476-2.497-20.0172-1.3835 2.6287 2.5303 6.0844 4.0581 9.7508 4.3121z"/><path d="m11.7848 89.1892c.4521 5.6594-5.43176 8.8412-11.7848 9.3006 1.15869-5.6928 7.09064-8.2344 11.7848-9.3006z"/><path d="m23.1796 83.9724c.6726 2.4191-.2516 8.986-9.3911 11.5916.3928-4.4345 2.7865-10.2081 9.3911-11.5916z"/><path d="m32.5732 94.5698c3.2972-.2904 6.3865-1.7108 8.73-4.0138-5.5871-2.781-14.3819-.27-18.0445 1.5895 2.7212 1.8569 6.0173 2.7148 9.3145 2.4243z"/><path d="m31.6465 77.4556c1.252 2.3829 1.5176 9.1725-6.5735 13.2591-.4691-4.3705 1.3142-11.8449 6.5735-13.2591z"/><path d="m48.5527 83.9401c1.2909-1.0609 2.3493-2.3692 3.111-3.8455-3.8492-1.5895-11.9883.2227-17.0894 4.9468 1.4234.8474 3.0101 1.3939 4.6595 1.6048 1.6493.2109 3.3251.0815 4.921-.38 1.6108-.4737 3.1071-1.2651 4.3979-2.3261z"/><path d="m39.568 67.4368c3.6287 6.2357-.2063 13.3565-4.1967 16.2823-1.7748-5.7958-.1441-12.1122 4.1967-16.2823z"/><path d="m58.3954 67.1668c.4381 9.6847-9.8291 9.1586-14.6504 9.2226 1.5176-2.0349 9.9535-9.4119 14.6504-9.2226z"/><path d="m45.7345 58.1196c1.9076 2.0683 4.7705 10.0187-1.5684 16.5049-1.9868-4.6906-2.422-11.8922 1.5684-16.5049z"/><path d="m63.7791 53.827c.3278 7.8224-6.3559 11.7809-12.8022 11.7197 1.9387-3.7693 7.1218-11.0349 12.8022-11.7197z"/><path d="m50.2563 48.4376c4.273 2.4776 3.7869 10.4781 1.2661 14.6426-2.8318-3.8777-4.9457-8.6964-1.2661-14.6426z"/><path d="m64.0589 41.108c2.1139 7.1236-4.0978 11.9423-7.8254 12.3543.9552-3.4017 2.2043-9.4286 7.8254-12.3543z"/><path d="m51.0391 38.739c4.7111 2.3244 6.9437 7.8836 5.1802 12.8944-3.2867-2.6084-7.2461-8.1258-5.1802-12.8944z"/><path d="m64.2793 30.1204c2.9109 8.6659-3.7728 11.497-6.2598 12.1929.2968-3.6857 2.6763-11.032 6.2598-12.1929z"/><path d="m51.2256 27.8461c1.9105.5428 7.3563 4.9468 6.37 12.8332-3.5835-1.9876-7.9356-5.7736-6.37-12.8332z"/><path d="m62.3067 16.9894c3.2556 10.6507-2.1761 15.024-3.9593 15.8953-.2826-3.3683-.6274-11.238 3.9593-15.8953z"/><path d="m50.2563 17.2567c3.4111.9381 7.7152 7.1069 7.5117 13.0391-3.38-1.5255-8.4359-7.8697-7.5117-13.0391z"/><path d="m51.2737.737793c7.9187 8.061787 9.0293 14.419907 6.7147 22.259007-3.5863-3.1791-6.4491-12.719-6.7147-22.259007z"/></g></svg>